<?xml version="1.0" encoding="utf-8"?>
<!-- Generator: Adobe Illustrator 27.5.0, SVG Export Plug-In . SVG Version: 6.00 Build 0)  -->
<svg version="1.1" xmlns="http://www.w3.org/2000/svg" xmlns:xlink="http://www.w3.org/1999/xlink" x="0px" y="0px"
	 viewBox="0 0 500 500" style="enable-background:new 0 0 500 500;" xml:space="preserve">
<g id="Background_Complete">
	<g>
		<rect y="382.398" style="fill:#EBEBEB;" width="500" height="0.25"/>
		<rect x="416.779" y="398.494" style="fill:#EBEBEB;" width="33.122" height="0.25"/>
		<rect x="322.527" y="401.208" style="fill:#EBEBEB;" width="8.693" height="0.25"/>
		<rect x="396.586" y="389.208" style="fill:#EBEBEB;" width="19.192" height="0.25"/>
		<rect x="52.459" y="390.888" style="fill:#EBEBEB;" width="43.193" height="0.25"/>
		<rect x="104.556" y="390.888" style="fill:#EBEBEB;" width="6.333" height="0.25"/>
		<rect x="131.471" y="395.111" style="fill:#EBEBEB;" width="93.676" height="0.25"/>
		<path style="fill:#EBEBEB;" d="M237.014,337.8H43.915c-3.147,0-5.708-2.561-5.708-5.708V60.66c0-3.147,2.561-5.708,5.708-5.708
			h193.099c3.146,0,5.707,2.561,5.707,5.708v271.432C242.721,335.239,240.16,337.8,237.014,337.8z M43.915,55.203
			c-3.01,0-5.458,2.448-5.458,5.458v271.432c0,3.01,2.448,5.458,5.458,5.458h193.099c3.009,0,5.457-2.448,5.457-5.458V60.66
			c0-3.009-2.448-5.458-5.457-5.458H43.915z"/>
		<path style="fill:#EBEBEB;" d="M453.31,337.8H260.212c-3.147,0-5.707-2.561-5.707-5.708V60.66c0-3.147,2.561-5.708,5.707-5.708
			H453.31c3.148,0,5.708,2.561,5.708,5.708v271.432C459.019,335.239,456.458,337.8,453.31,337.8z M260.212,55.203
			c-3.009,0-5.457,2.448-5.457,5.458v271.432c0,3.01,2.448,5.458,5.457,5.458H453.31c3.01,0,5.458-2.448,5.458-5.458V60.66
			c0-3.009-2.448-5.458-5.458-5.458H260.212z"/>
	</g>
	<g>
		<g>
			<g>
				<rect x="89.409" y="102.393" style="fill:#FAFAFA;" width="71.254" height="241.711"/>
				<g>
					<polygon style="fill:#F5F5F5;" points="150.052,102.393 145.889,102.393 121.036,344.104 125.2,344.104 					"/>
				</g>
				<rect x="88.953" y="103.328" style="fill:#E0E0E0;" width="70.447" height="2.13"/>
				<rect x="88.953" y="341.989" style="fill:#EBEBEB;" width="70.447" height="4.558"/>
				<g>
					<rect x="91.662" y="346.345" style="fill:#EBEBEB;" width="66.567" height="0.202"/>
					<polygon style="fill:#EBEBEB;" points="91.662,103.328 158.229,103.328 158.229,346.345 162.216,346.345 162.216,100.341 
						87.674,100.341 87.674,346.345 91.662,346.345 					"/>
				</g>
			</g>
			<g>
				<rect x="168.696" y="102.393" style="fill:#FAFAFA;" width="71.254" height="241.711"/>
				<g>
					<polygon style="fill:#F5F5F5;" points="220.186,102.393 197.469,102.393 172.617,344.104 195.333,344.104 					"/>
				</g>
				<rect x="168.24" y="103.328" style="fill:#E0E0E0;" width="72.447" height="2.13"/>
				<rect x="168.24" y="341.989" style="fill:#EBEBEB;" width="72.447" height="4.558"/>
				<g>
					<rect x="170.949" y="346.345" style="fill:#EBEBEB;" width="66.567" height="0.202"/>
					<polygon style="fill:#EBEBEB;" points="170.949,103.328 237.516,103.328 237.516,346.345 241.503,346.345 241.503,100.341 
						166.962,100.341 166.962,346.345 170.949,346.345 					"/>
				</g>
			</g>
			<g>
				<rect x="247.983" y="102.393" style="fill:#FAFAFA;" width="69.254" height="241.711"/>
				<g>
					<polygon style="fill:#F5F5F5;" points="287.221,102.393 283.058,102.393 258.206,344.104 262.369,344.104 					"/>
				</g>
				<rect x="247.528" y="103.328" style="fill:#E0E0E0;" width="70.447" height="2.13"/>
				<rect x="247.528" y="341.989" style="fill:#EBEBEB;" width="70.447" height="4.558"/>
				<g>
					<rect x="250.237" y="346.345" style="fill:#EBEBEB;" width="66.567" height="0.202"/>
					<polygon style="fill:#EBEBEB;" points="250.237,103.328 316.803,103.328 316.803,346.345 320.791,346.345 320.791,100.341 
						246.249,100.341 246.249,346.345 250.237,346.345 					"/>
				</g>
			</g>
			<g>
				<rect x="327.271" y="102.393" style="fill:#FAFAFA;" width="71.254" height="241.711"/>
				<g>
					<polygon style="fill:#F5F5F5;" points="391.553,102.393 368.836,102.393 343.984,344.104 366.701,344.104 					"/>
				</g>
				<rect x="326.815" y="103.328" style="fill:#E0E0E0;" width="70.447" height="2.13"/>
				<rect x="326.815" y="341.989" style="fill:#EBEBEB;" width="70.447" height="4.558"/>
				<g>
					<polygon style="fill:#EBEBEB;" points="329.524,103.328 396.091,103.328 396.091,346.345 400.078,346.345 400.078,100.341 
						325.537,100.341 325.537,346.345 329.524,346.345 					"/>
					<rect x="329.524" y="346.345" style="fill:#EBEBEB;" width="66.567" height="0.202"/>
				</g>
			</g>
			<g>
				<rect x="107.683" y="288.487" style="fill:#EBEBEB;" width="30.933" height="53.488"/>
				<polygon style="fill:#EBEBEB;" points="132.676,281.013 132.676,294.428 130.236,294.428 116.062,294.428 113.623,294.428 
					113.623,281.013 				"/>
				
					<rect x="132.676" y="290.468" transform="matrix(-1 -1.224647e-16 1.224647e-16 -1 269.3115 584.8957)" style="fill:#FAFAFA;" width="3.96" height="3.96"/>
				
					<rect x="125.005" y="290.468" transform="matrix(-1 -1.224647e-16 1.224647e-16 -1 253.9697 584.8957)" style="fill:#FAFAFA;" width="3.96" height="3.96"/>
				
					<rect x="117.334" y="290.468" transform="matrix(-1 -1.224647e-16 1.224647e-16 -1 238.6279 584.8957)" style="fill:#FAFAFA;" width="3.96" height="3.96"/>
				
					<rect x="109.663" y="290.468" transform="matrix(-1 -1.224647e-16 1.224647e-16 -1 223.2862 584.8957)" style="fill:#F0F0F0;" width="3.96" height="3.96"/>
				
					<rect x="132.676" y="297.663" transform="matrix(-1 -1.224647e-16 1.224647e-16 -1 269.3115 599.2872)" style="fill:#F0F0F0;" width="3.96" height="3.96"/>
				
					<rect x="125.005" y="297.663" transform="matrix(-1 -1.224647e-16 1.224647e-16 -1 253.9697 599.2872)" style="fill:#F0F0F0;" width="3.96" height="3.96"/>
				
					<rect x="117.334" y="297.663" transform="matrix(-1 -1.224647e-16 1.224647e-16 -1 238.6279 599.2872)" style="fill:#FAFAFA;" width="3.96" height="3.96"/>
				
					<rect x="109.663" y="297.663" transform="matrix(-1 -1.224647e-16 1.224647e-16 -1 223.2862 599.2872)" style="fill:#FAFAFA;" width="3.96" height="3.96"/>
				
					<rect x="132.676" y="304.859" transform="matrix(-1 -1.224647e-16 1.224647e-16 -1 269.3115 613.6787)" style="fill:#F0F0F0;" width="3.96" height="3.96"/>
				
					<rect x="125.005" y="304.859" transform="matrix(-1 -1.224647e-16 1.224647e-16 -1 253.9697 613.6787)" style="fill:#FAFAFA;" width="3.96" height="3.96"/>
				
					<rect x="117.334" y="304.859" transform="matrix(-1 -1.224647e-16 1.224647e-16 -1 238.6279 613.6787)" style="fill:#FAFAFA;" width="3.96" height="3.96"/>
				
					<rect x="125.005" y="284.248" transform="matrix(-1 -1.224647e-16 1.224647e-16 -1 253.9697 572.4566)" style="fill:#FAFAFA;" width="3.96" height="3.96"/>
				
					<rect x="117.334" y="284.248" transform="matrix(-1 -1.224647e-16 1.224647e-16 -1 238.6279 572.4566)" style="fill:#F0F0F0;" width="3.96" height="3.96"/>
				
					<rect x="109.663" y="304.859" transform="matrix(-1 -1.224647e-16 1.224647e-16 -1 223.2862 613.6787)" style="fill:#F0F0F0;" width="3.96" height="3.96"/>
				
					<rect x="132.676" y="312.055" transform="matrix(-1 -1.224647e-16 1.224647e-16 -1 269.3115 628.0701)" style="fill:#FAFAFA;" width="3.96" height="3.96"/>
				
					<rect x="125.005" y="312.055" transform="matrix(-1 -1.224647e-16 1.224647e-16 -1 253.9697 628.0701)" style="fill:#F0F0F0;" width="3.96" height="3.96"/>
				
					<rect x="117.334" y="312.055" transform="matrix(-1 -1.224647e-16 1.224647e-16 -1 238.6279 628.0701)" style="fill:#F0F0F0;" width="3.96" height="3.96"/>
				
					<rect x="109.663" y="312.055" transform="matrix(-1 -1.224647e-16 1.224647e-16 -1 223.2862 628.0701)" style="fill:#FAFAFA;" width="3.96" height="3.96"/>
				
					<rect x="132.676" y="319.251" transform="matrix(-1 -1.224647e-16 1.224647e-16 -1 269.3115 642.4617)" style="fill:#F0F0F0;" width="3.96" height="3.96"/>
				
					<rect x="125.005" y="319.251" transform="matrix(-1 -1.224647e-16 1.224647e-16 -1 253.9697 642.4617)" style="fill:#FAFAFA;" width="3.96" height="3.96"/>
				
					<rect x="117.334" y="319.251" transform="matrix(-1 -1.224647e-16 1.224647e-16 -1 238.6279 642.4617)" style="fill:#FAFAFA;" width="3.96" height="3.96"/>
				
					<rect x="109.663" y="319.251" transform="matrix(-1 -1.224647e-16 1.224647e-16 -1 223.2862 642.4617)" style="fill:#F0F0F0;" width="3.96" height="3.96"/>
				
					<rect x="132.676" y="326.446" transform="matrix(-1 -1.224647e-16 1.224647e-16 -1 269.3115 656.8531)" style="fill:#F0F0F0;" width="3.96" height="3.96"/>
				
					<rect x="125.005" y="326.446" transform="matrix(-1 -1.224647e-16 1.224647e-16 -1 253.9697 656.8531)" style="fill:#FAFAFA;" width="3.96" height="3.96"/>
				
					<rect x="117.334" y="326.446" transform="matrix(-1 -1.224647e-16 1.224647e-16 -1 238.6279 656.8531)" style="fill:#F0F0F0;" width="3.96" height="3.96"/>
				
					<rect x="109.663" y="326.446" transform="matrix(-1 -1.224647e-16 1.224647e-16 -1 223.2862 656.8531)" style="fill:#FAFAFA;" width="3.96" height="3.96"/>
				
					<rect x="132.676" y="333.642" transform="matrix(-1 -1.224647e-16 1.224647e-16 -1 269.3115 671.2446)" style="fill:#FAFAFA;" width="3.96" height="3.96"/>
				
					<rect x="125.005" y="333.642" transform="matrix(-1 -1.224647e-16 1.224647e-16 -1 253.9697 671.2446)" style="fill:#FAFAFA;" width="3.96" height="3.96"/>
				
					<rect x="117.334" y="333.642" transform="matrix(-1 -1.224647e-16 1.224647e-16 -1 238.6279 671.2446)" style="fill:#F0F0F0;" width="3.96" height="3.96"/>
				
					<rect x="109.663" y="333.642" transform="matrix(-1 -1.224647e-16 1.224647e-16 -1 223.2862 671.2446)" style="fill:#F0F0F0;" width="3.96" height="3.96"/>
			</g>
			<g>
				<rect x="282.074" y="288.487" style="fill:#EBEBEB;" width="30.933" height="53.488"/>
				<polygon style="fill:#EBEBEB;" points="307.067,281.013 307.067,294.428 304.628,294.428 290.454,294.428 288.015,294.428 
					288.015,281.013 				"/>
				
					<rect x="307.067" y="290.468" transform="matrix(-1 -1.224647e-16 1.224647e-16 -1 618.0947 584.8957)" style="fill:#FAFAFA;" width="3.96" height="3.96"/>
				
					<rect x="299.396" y="290.468" transform="matrix(-1 -1.224647e-16 1.224647e-16 -1 602.7529 584.8957)" style="fill:#FAFAFA;" width="3.96" height="3.96"/>
				
					<rect x="291.725" y="290.468" transform="matrix(-1 -1.224647e-16 1.224647e-16 -1 587.4111 584.8957)" style="fill:#FAFAFA;" width="3.96" height="3.96"/>
				
					<rect x="284.055" y="290.468" transform="matrix(-1 -1.224647e-16 1.224647e-16 -1 572.0694 584.8957)" style="fill:#F0F0F0;" width="3.96" height="3.96"/>
				
					<rect x="307.067" y="297.663" transform="matrix(-1 -1.224647e-16 1.224647e-16 -1 618.0947 599.2872)" style="fill:#F0F0F0;" width="3.96" height="3.96"/>
				
					<rect x="299.396" y="297.663" transform="matrix(-1 -1.224647e-16 1.224647e-16 -1 602.7529 599.2872)" style="fill:#F0F0F0;" width="3.96" height="3.96"/>
				
					<rect x="291.725" y="297.663" transform="matrix(-1 -1.224647e-16 1.224647e-16 -1 587.4111 599.2872)" style="fill:#FAFAFA;" width="3.96" height="3.96"/>
				
					<rect x="284.055" y="297.663" transform="matrix(-1 -1.224647e-16 1.224647e-16 -1 572.0694 599.2872)" style="fill:#FAFAFA;" width="3.96" height="3.96"/>
				
					<rect x="307.067" y="304.859" transform="matrix(-1 -1.224647e-16 1.224647e-16 -1 618.0947 613.6787)" style="fill:#F0F0F0;" width="3.96" height="3.96"/>
				
					<rect x="299.396" y="304.859" transform="matrix(-1 -1.224647e-16 1.224647e-16 -1 602.7529 613.6787)" style="fill:#FAFAFA;" width="3.96" height="3.96"/>
				
					<rect x="291.725" y="304.859" transform="matrix(-1 -1.224647e-16 1.224647e-16 -1 587.4111 613.6787)" style="fill:#FAFAFA;" width="3.96" height="3.96"/>
				
					<rect x="299.396" y="284.248" transform="matrix(-1 -1.224647e-16 1.224647e-16 -1 602.7529 572.4566)" style="fill:#FAFAFA;" width="3.96" height="3.96"/>
				
					<rect x="291.725" y="284.248" transform="matrix(-1 -1.224647e-16 1.224647e-16 -1 587.4111 572.4566)" style="fill:#F0F0F0;" width="3.96" height="3.96"/>
				
					<rect x="284.055" y="304.859" transform="matrix(-1 -1.224647e-16 1.224647e-16 -1 572.0694 613.6787)" style="fill:#F0F0F0;" width="3.96" height="3.96"/>
				
					<rect x="307.067" y="312.055" transform="matrix(-1 -1.224647e-16 1.224647e-16 -1 618.0947 628.0701)" style="fill:#FAFAFA;" width="3.96" height="3.96"/>
				
					<rect x="299.396" y="312.055" transform="matrix(-1 -1.224647e-16 1.224647e-16 -1 602.7529 628.0701)" style="fill:#F0F0F0;" width="3.96" height="3.96"/>
				
					<rect x="291.725" y="312.055" transform="matrix(-1 -1.224647e-16 1.224647e-16 -1 587.4111 628.0701)" style="fill:#F0F0F0;" width="3.96" height="3.96"/>
				
					<rect x="284.055" y="312.055" transform="matrix(-1 -1.224647e-16 1.224647e-16 -1 572.0694 628.0701)" style="fill:#FAFAFA;" width="3.96" height="3.96"/>
				
					<rect x="307.067" y="319.251" transform="matrix(-1 -1.224647e-16 1.224647e-16 -1 618.0947 642.4617)" style="fill:#F0F0F0;" width="3.96" height="3.96"/>
				
					<rect x="299.396" y="319.251" transform="matrix(-1 -1.224647e-16 1.224647e-16 -1 602.7529 642.4617)" style="fill:#FAFAFA;" width="3.96" height="3.96"/>
				
					<rect x="291.725" y="319.251" transform="matrix(-1 -1.224647e-16 1.224647e-16 -1 587.4111 642.4617)" style="fill:#FAFAFA;" width="3.96" height="3.96"/>
				
					<rect x="284.055" y="319.251" transform="matrix(-1 -1.224647e-16 1.224647e-16 -1 572.0694 642.4617)" style="fill:#F0F0F0;" width="3.96" height="3.96"/>
				
					<rect x="307.067" y="326.446" transform="matrix(-1 -1.224647e-16 1.224647e-16 -1 618.0947 656.8531)" style="fill:#F0F0F0;" width="3.96" height="3.96"/>
				
					<rect x="299.396" y="326.446" transform="matrix(-1 -1.224647e-16 1.224647e-16 -1 602.7529 656.8531)" style="fill:#FAFAFA;" width="3.96" height="3.96"/>
				
					<rect x="291.725" y="326.446" transform="matrix(-1 -1.224647e-16 1.224647e-16 -1 587.4111 656.8531)" style="fill:#F0F0F0;" width="3.96" height="3.96"/>
				
					<rect x="284.055" y="326.446" transform="matrix(-1 -1.224647e-16 1.224647e-16 -1 572.0694 656.8531)" style="fill:#FAFAFA;" width="3.96" height="3.96"/>
				
					<rect x="307.067" y="333.642" transform="matrix(-1 -1.224647e-16 1.224647e-16 -1 618.0947 671.2446)" style="fill:#FAFAFA;" width="3.96" height="3.96"/>
				
					<rect x="299.396" y="333.642" transform="matrix(-1 -1.224647e-16 1.224647e-16 -1 602.7529 671.2446)" style="fill:#FAFAFA;" width="3.96" height="3.96"/>
				
					<rect x="291.725" y="333.642" transform="matrix(-1 -1.224647e-16 1.224647e-16 -1 587.4111 671.2446)" style="fill:#F0F0F0;" width="3.96" height="3.96"/>
				
					<rect x="284.055" y="333.642" transform="matrix(-1 -1.224647e-16 1.224647e-16 -1 572.0694 671.2446)" style="fill:#F0F0F0;" width="3.96" height="3.96"/>
			</g>
			<g>
				<rect x="334.427" y="307.973" style="fill:#F0F0F0;" width="27.71" height="34.003"/>
				<polygon style="fill:#E6E6E6;" points="336.839,311.744 343.285,311.744 345.059,311.744 346.832,311.744 346.832,315.291 
					345.059,315.291 343.285,315.291 336.839,315.291 				"/>
				<polygon style="fill:#FAFAFA;" points="336.839,318.615 343.285,318.615 345.059,318.615 346.832,318.615 346.832,322.163 
					345.059,322.163 343.285,322.163 336.839,322.163 				"/>
				<polygon style="fill:#E6E6E6;" points="336.839,325.487 343.285,325.487 345.059,325.487 346.832,325.487 346.832,329.034 
					345.059,329.034 343.285,329.034 336.839,329.034 				"/>
				<polygon style="fill:#FAFAFA;" points="336.839,332.358 343.285,332.358 346.026,332.358 346.832,332.358 346.832,335.906 
					346.026,335.906 343.285,335.906 336.839,335.906 				"/>
				<polygon style="fill:#FAFAFA;" points="349.731,311.744 356.177,311.744 357.95,311.744 359.724,311.744 359.724,315.291 
					357.95,315.291 356.177,315.291 349.731,315.291 				"/>
				<polygon style="fill:#FAFAFA;" points="349.731,318.615 356.177,318.615 358.678,318.615 359.724,318.615 359.724,322.163 
					358.678,322.163 356.177,322.163 349.731,322.163 				"/>
				<polygon style="fill:#E6E6E6;" points="349.731,325.487 356.177,325.487 357.95,325.487 359.724,325.487 359.724,329.034 
					357.95,329.034 356.177,329.034 349.731,329.034 				"/>
				<polygon style="fill:#FAFAFA;" points="349.731,332.358 356.177,332.358 357.95,332.358 359.724,332.358 359.724,335.906 
					357.95,335.906 356.177,335.906 349.731,335.906 				"/>
			</g>
			<g>
				<rect x="204.807" y="320.848" style="fill:#F0F0F0;" width="25.177" height="21.128"/>
				
					<rect x="225.149" y="323.481" transform="matrix(-1 -1.224647e-16 1.224647e-16 -1 453.5218 650.1862)" style="fill:#FAFAFA;" width="3.223" height="3.223"/>
				
					<rect x="218.906" y="323.481" transform="matrix(-1 -1.224647e-16 1.224647e-16 -1 441.035 650.1862)" style="fill:#FAFAFA;" width="3.223" height="3.223"/>
				
					<rect x="212.662" y="323.481" transform="matrix(-1 -1.224647e-16 1.224647e-16 -1 428.5481 650.1862)" style="fill:#FAFAFA;" width="3.223" height="3.223"/>
				
					<rect x="206.419" y="323.481" transform="matrix(-1 -1.224647e-16 1.224647e-16 -1 416.0612 650.1862)" style="fill:#FAFAFA;" width="3.223" height="3.223"/>
				
					<rect x="225.149" y="329.338" transform="matrix(-1 -1.224647e-16 1.224647e-16 -1 453.5218 661.8996)" style="fill:#FAFAFA;" width="3.223" height="3.223"/>
				
					<rect x="218.906" y="329.338" transform="matrix(-1 -1.224647e-16 1.224647e-16 -1 441.035 661.8996)" style="fill:#FAFAFA;" width="3.223" height="3.223"/>
				
					<rect x="212.662" y="329.338" transform="matrix(-1 -1.224647e-16 1.224647e-16 -1 428.5481 661.8996)" style="fill:#FAFAFA;" width="3.223" height="3.223"/>
				
					<rect x="206.419" y="329.338" transform="matrix(-1 -1.224647e-16 1.224647e-16 -1 416.0612 661.8996)" style="fill:#E6E6E6;" width="3.223" height="3.223"/>
				
					<rect x="225.149" y="335.195" transform="matrix(-1 -1.224647e-16 1.224647e-16 -1 453.5218 673.613)" style="fill:#E6E6E6;" width="3.223" height="3.223"/>
				
					<rect x="218.906" y="335.195" transform="matrix(-1 -1.224647e-16 1.224647e-16 -1 441.035 673.613)" style="fill:#E6E6E6;" width="3.223" height="3.223"/>
				
					<rect x="212.662" y="335.195" transform="matrix(-1 -1.224647e-16 1.224647e-16 -1 428.5481 673.613)" style="fill:#FAFAFA;" width="3.223" height="3.223"/>
				
					<rect x="206.419" y="335.195" transform="matrix(-1 -1.224647e-16 1.224647e-16 -1 416.0612 673.613)" style="fill:#E6E6E6;" width="3.223" height="3.223"/>
			</g>
			<g>
				<rect x="254.251" y="320.848" style="fill:#F0F0F0;" width="25.177" height="21.128"/>
				
					<rect x="274.593" y="323.481" transform="matrix(-1 -1.224647e-16 1.224647e-16 -1 552.4088 650.1862)" style="fill:#FAFAFA;" width="3.223" height="3.223"/>
				
					<rect x="268.349" y="323.481" transform="matrix(-1 -1.224647e-16 1.224647e-16 -1 539.922 650.1862)" style="fill:#FAFAFA;" width="3.223" height="3.223"/>
				
					<rect x="262.106" y="323.481" transform="matrix(-1 -1.224647e-16 1.224647e-16 -1 527.4351 650.1862)" style="fill:#FAFAFA;" width="3.223" height="3.223"/>
				
					<rect x="255.862" y="323.481" transform="matrix(-1 -1.224647e-16 1.224647e-16 -1 514.9482 650.1862)" style="fill:#FAFAFA;" width="3.223" height="3.223"/>
				
					<rect x="274.593" y="329.338" transform="matrix(-1 -1.224647e-16 1.224647e-16 -1 552.4088 661.8996)" style="fill:#FAFAFA;" width="3.223" height="3.223"/>
				
					<rect x="268.349" y="329.338" transform="matrix(-1 -1.224647e-16 1.224647e-16 -1 539.922 661.8996)" style="fill:#FAFAFA;" width="3.223" height="3.223"/>
				
					<rect x="262.106" y="329.338" transform="matrix(-1 -1.224647e-16 1.224647e-16 -1 527.4351 661.8996)" style="fill:#FAFAFA;" width="3.223" height="3.223"/>
				
					<rect x="255.862" y="329.338" transform="matrix(-1 -1.224647e-16 1.224647e-16 -1 514.9482 661.8996)" style="fill:#E6E6E6;" width="3.223" height="3.223"/>
				
					<rect x="274.593" y="335.195" transform="matrix(-1 -1.224647e-16 1.224647e-16 -1 552.4088 673.613)" style="fill:#E6E6E6;" width="3.223" height="3.223"/>
				
					<rect x="268.349" y="335.195" transform="matrix(-1 -1.224647e-16 1.224647e-16 -1 539.922 673.613)" style="fill:#E6E6E6;" width="3.223" height="3.223"/>
				
					<rect x="262.106" y="335.195" transform="matrix(-1 -1.224647e-16 1.224647e-16 -1 527.4351 673.613)" style="fill:#FAFAFA;" width="3.223" height="3.223"/>
				
					<rect x="255.862" y="335.195" transform="matrix(-1 -1.224647e-16 1.224647e-16 -1 514.9482 673.613)" style="fill:#E6E6E6;" width="3.223" height="3.223"/>
			</g>
			<g>
				<rect x="176.218" y="305.224" style="fill:#F0F0F0;" width="25.177" height="36.752"/>
				<rect x="190.316" y="306.836" style="fill:#FAFAFA;" width="9.467" height="9.08"/>
				<rect x="177.829" y="306.836" style="fill:#FAFAFA;" width="9.467" height="9.08"/>
				<rect x="190.316" y="318.549" style="fill:#FAFAFA;" width="9.467" height="9.08"/>
				<rect x="177.829" y="318.549" style="fill:#FAFAFA;" width="9.467" height="9.08"/>
				<rect x="190.316" y="330.262" style="fill:#FAFAFA;" width="9.467" height="9.08"/>
				<rect x="177.829" y="330.262" style="fill:#FAFAFA;" width="9.467" height="9.08"/>
			</g>
			<g>
				<rect x="366.349" y="305.224" style="fill:#F0F0F0;" width="25.177" height="36.752"/>
				<rect x="380.447" y="306.836" style="fill:#FAFAFA;" width="9.467" height="9.08"/>
				<rect x="367.96" y="306.836" style="fill:#FAFAFA;" width="9.467" height="9.08"/>
				<rect x="380.447" y="318.549" style="fill:#FAFAFA;" width="9.467" height="9.08"/>
				<rect x="367.96" y="318.549" style="fill:#FAFAFA;" width="9.467" height="9.08"/>
				<rect x="380.447" y="330.262" style="fill:#FAFAFA;" width="9.467" height="9.08"/>
				<rect x="367.96" y="330.262" style="fill:#FAFAFA;" width="9.467" height="9.08"/>
			</g>
		</g>
		<g>
			<path style="fill:#E0E0E0;" d="M76.251,355.104c0,0-5.064-11.048,0.722-21.94c5.786-10.892,7.463-13.457,3.775-15.689
				c-3.688-2.231-5.38,8.713-5.38,8.713s-3.109-7.529-0.542-15.409c2.567-7.88,4.177-20.714,0.671-22.091
				c-3.506-1.377-0.669,16.011-3.711,21.937c0,0-2.555-6.598-2.976-12.927c-0.42-6.329,0.236-16.435-2.532-19.027
				c-2.768-2.592-4.542-0.799-1.821,13.168c2.721,13.967,2.701,25.321,2.701,25.321s-6.009-18.322-10.042-18.856
				c-4.033-0.534-4.028,5.399-0.576,10.545c3.452,5.146,10.11,14.366,11.201,19.11c0,0-6.596-13.788-12.529-9.562
				c-5.933,4.226,5.164,12.554,10.11,15.563c4.946,3.009,8.381,21.873,8.381,21.873L76.251,355.104z"/>
			<path style="fill:#EBEBEB;" d="M72.254,359.635c0,0,4.931-11.123-0.985-21.928c-5.916-10.804-7.624-13.345-3.962-15.631
				c3.661-2.286,5.484,8.632,5.484,8.632s3.019-7.575,0.357-15.416c-2.661-7.841-4.425-20.65-0.936-22.079
				c3.489-1.429,0.861,15.999,3.974,21.88c0,0,2.476-6.635,2.82-12.97c0.344-6.335-0.433-16.43,2.304-19.064
				c2.737-2.633,4.532-0.866,1.979,13.14c-2.553,14.006-2.397,25.359-2.397,25.359s5.789-18.409,9.815-19.004
				c4.026-0.594,4.092,5.338,0.702,10.536c-3.39,5.197-9.936,14.515-10.971,19.275c0,0,6.43-13.885,12.413-9.748
				c5.983,4.137-5.013,12.63-9.923,15.712c-4.91,3.083-8.118,21.996-8.118,21.996L72.254,359.635z"/>
			<g>
				<polygon style="fill:#EBEBEB;" points="94.996,351.706 54.262,351.706 57.559,380.855 91.7,380.855 				"/>
			</g>
		</g>
		<g>
			<g>
				<path style="fill:#EBEBEB;" d="M400.339,349.63c0.147-0.988,3.524-24.293-3.242-32.339c-1.498-1.781-3.388-2.712-5.618-2.767
					c-13.658-0.32-15.527,10.65-15.544,10.763l1.611,0.248c0.063-0.393,1.682-9.677,13.893-9.381c1.767,0.043,3.21,0.758,4.41,2.186
					c6.299,7.49,2.912,30.815,2.877,31.049L400.339,349.63z"/>
			</g>
			<g>
				<path style="fill:#EBEBEB;" d="M401.165,348.568l1.629-0.051c-0.007-0.214-0.542-21.473,9.933-25.865
					c10.266-4.3,14.883,4.541,15.075,4.921l1.456-0.732c-0.053-0.106-5.472-10.593-17.161-5.691
					C400.591,325.973,401.137,347.648,401.165,348.568z"/>
			</g>
			<g>
				<path style="fill:#EBEBEB;" d="M401.118,350.238c0-0.339,0.098-33.961,6.653-43.795c6.294-9.441,16.447-4.996,16.876-4.802
					l0.674-1.484c-0.118-0.053-11.835-5.226-18.906,5.382c-6.828,10.242-6.926,43.295-6.927,44.697L401.118,350.238z"/>
			</g>
			<path style="fill:#E0E0E0;" d="M389.525,315.332c0,0,5.964,2.199,4.191,7.389c-1.773,5.19-20.631,13.733-20.631,13.733
				s-7.898-7.239-0.645-19.012C379.693,305.669,389.363,311.618,389.525,315.332z"/>
			<path style="fill:#E0E0E0;" d="M408.066,304.673c0,0-4.234-0.454-3.893-3.033c0.341-2.579,16.459-9.216,25.968,1.517
				c0,0-6.089,10.459-14.891,10.596C406.448,313.889,408.066,304.673,408.066,304.673z"/>
			<path style="fill:#E0E0E0;" d="M412.412,321.901c0,0-2.922-2.359,0.231-3.511c3.153-1.152,18.627-0.825,18.788,14.503
				c0,0-18.021,2.995-20.252-2.844C408.949,324.211,412.412,321.901,412.412,321.901z"/>
			<polygon style="fill:#EBEBEB;" points="386.32,380.855 414.285,380.855 417.302,350.237 383.303,350.237 			"/>
			
				<rect x="381.81" y="346.859" transform="matrix(-1 -1.224647e-16 1.224647e-16 -1 800.6056 700.4739)" style="fill:#E0E0E0;" width="36.986" height="6.756"/>
		</g>
	</g>
</g>
<g id="Background_Simple" style="display:none;">
	<g style="display:inline;">
		<path style="fill:#407BFF;" d="M96.299,114.134c27.919-59.449,127.059-51.062,165.317-9.255
			c38.258,41.806,50.696,68.599,85.208,52.983c34.512-15.616,78.518-11.44,81.043,38.164s-37.913,108.263-102.09,125.615
			c-64.177,17.352-64.161,78.759-149.1,66.368c-46.31-6.756-47.365-56.86-40.825-98.301
			C142.391,248.268,63.92,183.078,96.299,114.134z"/>
		<path style="opacity:0.9;fill:#FFFFFF;" d="M96.299,114.134c27.919-59.449,127.059-51.062,165.317-9.255
			c38.258,41.806,50.696,68.599,85.208,52.983c34.512-15.616,78.518-11.44,81.043,38.164s-37.913,108.263-102.09,125.615
			c-64.177,17.352-64.161,78.759-149.1,66.368c-46.31-6.756-47.365-56.86-40.825-98.301
			C142.391,248.268,63.92,183.078,96.299,114.134z"/>
	</g>
</g>
<g id="Shadow_1_">
	<ellipse id="_x3C_Path_x3E__359_" style="fill:#F5F5F5;" cx="250" cy="416.238" rx="193.889" ry="11.323"/>
</g>
<g id="Interface">
	<g>
		<rect x="123.288" y="161.164" style="fill:#407BFF;" width="231.808" height="170.364"/>
		<rect x="123.288" y="161.164" style="opacity:0.7;fill:#FFFFFF;" width="231.808" height="170.364"/>
		<rect x="123.288" y="161.164" style="fill:#407BFF;" width="231.808" height="10.432"/>
		<circle style="opacity:0.7;fill:#FFFFFF;" cx="348.694" cy="166.38" r="2.806"/>
		<circle style="opacity:0.7;fill:#FFFFFF;" cx="340.49" cy="166.38" r="2.806"/>
		<circle style="opacity:0.7;fill:#FFFFFF;" cx="332.286" cy="166.38" r="2.806"/>
		<rect x="125.239" y="174.721" style="opacity:0.1;enable-background:new    ;" width="71.245" height="152.354"/>
		
			<rect x="198.485" y="174.721" transform="matrix(-1 -1.224647e-16 1.224647e-16 -1 552.1278 501.7955)" style="opacity:0.1;enable-background:new    ;" width="155.157" height="152.354"/>
	</g>
	<g>
		<rect x="229.694" y="186.204" style="opacity:0.2;enable-background:new    ;" width="93.464" height="66.606"/>
		<rect x="225.751" y="181.27" style="fill:#407BFF;" width="93.464" height="66.606"/>
		<rect x="225.75" y="181.27" style="opacity:0.5;fill:#FFFFFF;" width="93.47" height="66.61"/>
		<rect x="227.132" y="193.499" style="opacity:0.7;fill:#FFFFFF;" width="90.703" height="52.995"/>
		<rect x="225.751" y="181.27" style="fill:#407BFF;" width="93.464" height="10.432"/>
		<circle style="opacity:0.7;fill:#FFFFFF;" cx="312.813" cy="186.487" r="2.806"/>
		<circle style="opacity:0.7;fill:#FFFFFF;" cx="304.609" cy="186.487" r="2.806"/>
		<path style="opacity:0.7;fill:#FFFFFF;" d="M299.211,186.487c0,1.55-1.256,2.806-2.806,2.806c-1.55,0-2.806-1.256-2.806-2.806
			c0-1.55,1.256-2.806,2.806-2.806C297.954,183.68,299.211,184.937,299.211,186.487z"/>
		<polygon style="opacity:0.2;fill:#407BFF;" points="227.132,233.294 252.893,217.819 271.684,228.077 300.465,209.907 
			317.835,222.861 317.835,246.493 227.132,246.493 		"/>
		<path style="fill:#FFFFFF;" d="M253.406,207.592c0,3.856-3.126,6.982-6.982,6.982c-3.856,0-6.982-3.126-6.982-6.982
			c0-3.856,3.126-6.982,6.982-6.982C250.28,200.61,253.406,203.736,253.406,207.592z"/>
		<rect x="225.75" y="239.48" style="opacity:0.2;enable-background:new    ;" width="9.92" height="8.4"/>
	</g>
	<g>
		<rect x="242.986" y="284.23" style="opacity:0.2;enable-background:new    ;" width="93.464" height="47.034"/>
		<rect x="247.807" y="286.569" style="fill:#407BFF;" width="93.464" height="66.606"/>
		<rect x="247.807" y="286.569" style="opacity:0.5;fill:#FFFFFF;" width="93.464" height="66.606"/>
		<rect x="249.188" y="298.797" style="opacity:0.7;fill:#FFFFFF;" width="90.703" height="52.995"/>
		<g>
			<path style="fill:#263238;" d="M289.718,306.229l-7.185,21.678h-4.273l-5.358-16.042l-5.45,16.042h-4.304l-7.185-21.678h4.181
				l5.388,16.475l5.605-16.475h3.716l5.481,16.569l5.543-16.569H289.718z"/>
		</g>
		<rect x="247.807" y="286.569" style="fill:#407BFF;" width="93.464" height="10.432"/>
		<path style="opacity:0.7;fill:#FFFFFF;" d="M337.675,291.785c0,1.55-1.256,2.806-2.806,2.806c-1.55,0-2.806-1.256-2.806-2.806
			c0-1.55,1.256-2.806,2.806-2.806C336.419,288.979,337.675,290.235,337.675,291.785z"/>
		<path style="opacity:0.7;fill:#FFFFFF;" d="M329.471,291.785c0,1.55-1.256,2.806-2.806,2.806c-1.55,0-2.806-1.256-2.806-2.806
			c0-1.55,1.256-2.806,2.806-2.806C328.214,288.979,329.471,290.235,329.471,291.785z"/>
		<path style="opacity:0.7;fill:#FFFFFF;" d="M321.267,291.785c0,1.55-1.256,2.806-2.806,2.806c-1.55,0-2.806-1.256-2.806-2.806
			c0-1.55,1.256-2.806,2.806-2.806C320.01,288.979,321.267,290.235,321.267,291.785z"/>
		<g>
			<line style="fill:none;stroke:#263238;stroke-miterlimit:10;" x1="293.987" y1="307.23" x2="333.116" y2="307.23"/>
			<line style="fill:none;stroke:#263238;stroke-miterlimit:10;" x1="293.987" y1="312.382" x2="333.116" y2="312.382"/>
			<line style="fill:none;stroke:#263238;stroke-miterlimit:10;" x1="293.987" y1="317.533" x2="333.116" y2="317.533"/>
			<line style="fill:none;stroke:#263238;stroke-miterlimit:10;" x1="293.987" y1="322.685" x2="333.116" y2="322.685"/>
			<line style="fill:none;stroke:#263238;stroke-miterlimit:10;" x1="293.987" y1="327.836" x2="333.116" y2="327.836"/>
			<line style="fill:none;stroke:#263238;stroke-miterlimit:10;" x1="255.963" y1="332.987" x2="333.116" y2="332.987"/>
			<line style="fill:none;stroke:#263238;stroke-miterlimit:10;" x1="255.963" y1="338.139" x2="333.116" y2="338.139"/>
			<line style="fill:none;stroke:#263238;stroke-miterlimit:10;" x1="255.963" y1="343.29" x2="333.116" y2="343.29"/>
		</g>
	</g>
	<g>
		<rect x="136.824" y="248.878" style="opacity:0.2;enable-background:new    ;" width="93.464" height="66.606"/>
		<rect x="140.827" y="241.873" style="fill:#407BFF;" width="93.464" height="66.606"/>
		<rect x="140.827" y="241.873" style="opacity:0.5;fill:#FFFFFF;" width="93.464" height="66.606"/>
		<rect x="142.207" y="254.102" style="opacity:0.7;fill:#FFFFFF;" width="90.703" height="52.995"/>
		<g>
			<path style="fill:#263238;" d="M177.136,274.761l-14.413,5.39l14.413,5.389v4.346l-19.26-7.478v-4.513l19.26-7.478V274.761z"/>
			<path style="fill:#263238;" d="M192.343,259.595h4.679l-13.787,39.355h-4.679L192.343,259.595z"/>
			<path style="fill:#263238;" d="M217.284,277.894v4.513l-19.26,7.478v-4.346l14.414-5.389l-14.414-5.39v-4.345L217.284,277.894z"
				/>
		</g>
		<rect x="140.827" y="241.873" style="fill:#407BFF;" width="93.464" height="10.432"/>
		<path style="opacity:0.7;fill:#FFFFFF;" d="M230.695,247.089c0,1.55-1.256,2.806-2.806,2.806c-1.55,0-2.806-1.256-2.806-2.806
			c0-1.55,1.256-2.806,2.806-2.806C229.438,244.283,230.695,245.54,230.695,247.089z"/>
		<path style="opacity:0.7;fill:#FFFFFF;" d="M222.49,247.089c0,1.55-1.256,2.806-2.806,2.806c-1.55,0-2.806-1.256-2.806-2.806
			c0-1.55,1.256-2.806,2.806-2.806C221.234,244.283,222.49,245.54,222.49,247.089z"/>
		<path style="opacity:0.7;fill:#FFFFFF;" d="M214.286,247.089c0,1.55-1.256,2.806-2.806,2.806c-1.55,0-2.806-1.256-2.806-2.806
			c0-1.55,1.256-2.806,2.806-2.806C213.03,244.283,214.286,245.54,214.286,247.089z"/>
	</g>
</g>
<g id="Character_1">
	<g>
		<g>
			<path style="fill:#CE7A63;" d="M111.016,321.015l2.902,0.223c0.999,0.068,2.004,0.113,3.009,0.145
				c2.009,0.074,4.016,0.082,6.009,0.052c1.995-0.041,3.963-0.176,5.908-0.362c1.939-0.217,3.827-0.527,5.659-0.941l-0.849,0.352
				c0.354-0.217,0.659-0.33,1.074-0.612c0.406-0.279,0.798-0.496,1.228-0.813c0.844-0.58,1.698-1.225,2.554-1.879
				c1.706-1.34,3.439-2.718,5.148-4.141l5.159-4.294l5.197-4.303c1.02-0.844,2.531-0.702,3.375,0.318
				c0.719,0.869,0.72,2.097,0.075,2.962c-1.382,1.855-2.83,3.609-4.286,5.383c-1.472,1.755-2.988,3.474-4.539,5.176
				c-1.572,1.684-3.165,3.366-4.869,4.991c-0.864,0.811-1.738,1.621-2.682,2.423c-0.441,0.404-0.997,0.804-1.498,1.199
				c-0.491,0.394-1.188,0.814-1.783,1.208c-0.153,0.102-0.315,0.179-0.482,0.234l-0.367,0.118c-2.263,0.73-4.538,1.31-6.809,1.696
				c-2.267,0.384-4.534,0.661-6.788,0.794c-2.254,0.147-4.501,0.18-6.741,0.121c-1.12-0.038-2.238-0.092-3.36-0.171
				c-1.141-0.07-2.198-0.179-3.449-0.345c-2.629-0.35-4.477-2.765-4.127-5.395c0.338-2.536,2.596-4.345,5.115-4.156L111.016,321.015
				z"/>
		</g>
		<path style="fill:#407BFF;" d="M124.076,335.496l-3.258,0.812l-4.243,1.046c0,0-0.907-0.821-2.264-2.091
			c-3.431-3.197-9.773-9.246-11.83-12.106c5.833-3.793,8.537-2.298,19.736-2.195C125.052,324.22,124.076,335.496,124.076,335.496z"
			/>
		<path style="opacity:0.2;" d="M120.818,336.308l-4.243,1.046c0,0-0.907-0.821-2.264-2.091c-0.138-1.46-0.182-3.05-0.095-4.744
			C114.216,330.519,118.286,332.161,120.818,336.308z"/>
		<path style="fill:#263238;" d="M79.499,289.805c0,0,4.382-8.099,16.176-7.329c11.794,0.769,16.067,20.464,12.221,28.905
			c0,0-12.734,2.32-25.382,8.715c0,0-8.717-12.916-8.119-21.892C74.993,289.227,79.499,289.805,79.499,289.805z"/>
		<g>
			<path style="fill:#263238;" d="M120.741,370.411l4.781,8.378c12.812-2.984,53.883-9.249,58.927,4.842
				c6.268,17.512-39.031,31.471-64.103,32.326c-25.071,0.855-46.935-5.119-31.085-41.667L120.741,370.411z"/>
			<path style="opacity:0.2;enable-background:new    ;" d="M120.741,370.411l4.781,8.378c12.812-2.984,53.883-9.249,58.927,4.842
				c6.268,17.512-39.031,31.471-64.103,32.326c-25.071,0.855-46.935-5.119-31.085-41.667L120.741,370.411z"/>
		</g>
		<path style="fill:#263238;" d="M177.188,408.386c-0.057,0.036-0.131,0.032-0.184-0.009c-0.05-0.035-0.067-0.1-0.044-0.155
			c0.082-0.279,0.912-2.689,1.752-2.943c0.181-0.044,0.372,0.012,0.5,0.146c0.238,0.197,0.352,0.505,0.298,0.809
			c-0.136,0.451-0.411,0.847-0.786,1.132C178.248,407.757,177.733,408.099,177.188,408.386z M177.403,407.924
			c0.781-0.344,1.414-0.954,1.786-1.722c0.044-0.209-0.04-0.425-0.212-0.552c-0.047-0.058-0.126-0.081-0.197-0.057
			c-0.071,0.025-0.137,0.063-0.193,0.112C178.061,406.367,177.66,407.118,177.403,407.924z"/>
		<path style="fill:#263238;" d="M177.143,408.417c-0.057,0.021-0.12,0.003-0.156-0.046c-0.078-0.068-1.235-1.528-1.045-2.515
			c0.046-0.246,0.19-0.465,0.399-0.604c0.181-0.174,0.458-0.2,0.668-0.063c0.606,0.427,0.532,2.382,0.234,3.123l-0.021,0.074
			C177.2,408.405,177.172,408.415,177.143,408.417z M176.485,405.553c-0.105,0.091-0.175,0.214-0.201,0.351
			c-0.12,0.624,0.461,1.56,0.775,2.008c0.191-0.835,0.129-2.207-0.226-2.453c-0.039-0.02-0.111-0.078-0.29,0.048L176.485,405.553
			L176.485,405.553z"/>
		<path style="fill:#263238;" d="M133.115,412.495c0.033-0.059,0.099-0.091,0.166-0.081c0.06,0.007,0.107,0.055,0.113,0.115
			c0.064,0.284,0.504,2.795-0.108,3.423c-0.137,0.127-0.331,0.171-0.509,0.115c-0.302-0.056-0.552-0.272-0.652-0.564
			c-0.1-0.46-0.051-0.94,0.139-1.371C132.492,413.558,132.777,413.01,133.115,412.495z M133.15,413.004
			c-0.517,0.678-0.776,1.519-0.73,2.371c0.064,0.204,0.241,0.353,0.453,0.38c0.07,0.029,0.15,0.011,0.201-0.045
			c0.051-0.056,0.09-0.121,0.114-0.192C133.329,414.685,133.315,413.833,133.15,413.004z"/>
		<polygon style="fill:#EBB376;" points="149.525,399.808 139.211,403.482 134.258,405.246 135.528,410.667 140.325,409.645 
			152.042,407.148 		"/>
		<path style="fill:#407BFF;" d="M136.879,410.923l-0.868-6.396c-0.048-0.356-0.382-0.602-0.737-0.543l-3.155,0.526
			c0,0-4.294,0.403-5.147,1.505c-2.494,3.218-0.935,17.413,0.726,17.913c0.608,0.183,1.251-0.651,1.516-1.228
			c0.84-1.828,2.32-6.613,3.04-8.13c0.84-1.773,3.147-2.641,4.184-2.952C136.736,411.528,136.921,411.233,136.879,410.923z"/>
		<path style="fill:#263238;" d="M133.139,412.446c0.039-0.046,0.104-0.06,0.159-0.035c0.101,0.021,1.821,0.739,2.132,1.694
			c0.079,0.238,0.058,0.499-0.057,0.722c-0.073,0.24-0.304,0.397-0.554,0.378c-0.736-0.08-1.618-1.827-1.717-2.619l-0.017-0.075
			C133.096,412.485,133.115,412.462,133.139,412.446z M135.101,414.634c0.047-0.131,0.049-0.273,0.006-0.404
			c-0.197-0.604-1.159-1.143-1.65-1.382c0.237,0.823,0.955,1.993,1.385,2.037c0.044-0.001,0.135,0.014,0.23-0.183L135.101,414.634
			L135.101,414.634z"/>
		<polygon style="opacity:0.2;enable-background:new    ;" points="149.525,399.808 139.211,403.482 140.325,409.645 
			152.042,407.148 		"/>
		<g>
			<polygon style="fill:#407BFF;" points="142.152,410.572 145.119,410.785 143.133,400.579 139.768,402.441 			"/>
			<polygon style="opacity:0.6;fill:#FFFFFF;enable-background:new    ;" points="142.152,410.572 145.119,410.785 143.133,400.579 
				139.768,402.441 			"/>
		</g>
		<path style="opacity:0.2;enable-background:new    ;" d="M99.124,370.915l15.449,17.13c0,0,17.081-0.38,37.822,9.758
			c0,0,22.256-9.193,24.301-16.83c2.677-10.004-51.174-2.184-51.174-2.184L99.124,370.915z"/>
		<path style="fill:#CE7A63;" d="M126.14,374.735l-1.917-1.388c-0.721-0.522-1.65-0.663-2.493-0.379l-3.941,1.328
			c-1.576,0.531-2.797,1.792-3.277,3.384l-0.297,0.986c3.022,2.518,8.144,3.013,8.144,3.013l1.444,0.303
			c1.286,0.269,2.492-0.478,2.769-1.718l0.637-2.854C127.429,376.424,127.004,375.36,126.14,374.735z"/>
		<g>
			<path style="fill:#263238;" d="M166.857,380.902v2.538c0,0.651-0.767,0.918-1.41,0.918h-50.729c-0.651,0-1.436-0.267-1.436-0.918
				v-2.538H166.857z"/>
			<path style="opacity:0.4;fill:#FFFFFF;enable-background:new    ;" d="M166.857,380.902v2.538c0,0.651-0.767,0.918-1.41,0.918
				h-50.729c-0.651,0-1.436-0.267-1.436-0.918v-2.538H166.857z"/>
			<path style="opacity:0.2;enable-background:new    ;" d="M166.857,380.902v2.538c0,0.651-0.767,0.918-1.41,0.918h-33.459
				c-0.651,0-1.424-0.267-1.424-0.918v-2.538H166.857z"/>
			<path style="fill:#263238;" d="M175.344,354.546l-6.039,27.392c-0.197,0.902-1.075,1.557-1.961,1.557h-32.988
				c-0.878,0-1.443-0.819-1.239-1.721l6.031-27.182c0.204-0.895,1.074-1.34,1.96-1.34h32.989
				C174.984,353.251,175.541,353.651,175.344,354.546z"/>
			<path style="opacity:0.4;fill:#FFFFFF;enable-background:new    ;" d="M175.344,354.546l-6.039,27.392
				c-0.197,0.902-1.075,1.557-1.961,1.557h-31.866c-0.886,0-1.443-0.819-1.247-1.721l6.039-27.182
				c0.196-0.895,1.074-1.34,1.961-1.34h31.867C174.984,353.251,175.541,353.651,175.344,354.546z"/>
			<path style="opacity:0.2;enable-background:new    ;" d="M159.08,368.468v0.008c0,2.345-2.515,4.251-4.358,4.251
				c-1.843,0-2.936-1.905-2.41-4.251c0.526-2.299,2.36-4.173,4.164-4.244c-0.525,2.345,0.6,4.244,2.436,4.244
				C158.95,368.476,159.08,368.476,159.08,368.468z"/>
		</g>
		<polygon style="fill:#EBB376;" points="156.688,411.544 167.491,413.322 172.679,414.177 174.192,408.817 169.5,407.39 
			158.038,403.903 		"/>
		<path style="fill:#407BFF;" d="M173.134,407.94l-2.336,6.017c-0.13,0.336,0.043,0.712,0.382,0.833l3.015,1.067
			c0,0,3.953,1.726,5.233,1.175c3.739-1.608,9.248-14.784,8.036-16.026c-0.443-0.454-1.41-0.035-1.92,0.341
			c-1.62,1.193-5.232,4.664-6.596,5.642c-1.594,1.144-4.032,0.788-5.09,0.558C173.552,407.48,173.247,407.648,173.134,407.94z"/>
		<polygon style="opacity:0.2;enable-background:new    ;" points="156.688,411.544 167.491,413.322 169.5,407.39 158.038,403.903 
					"/>
		<path style="fill:#263238;" d="M167.64,406.271c0,0-44.047-24.761-59.245-24.057c-15.198,0.705-17.391,14.104-11.121,22.49
			c6.271,8.386,17.85,10.428,17.85,10.428s-7.884-11.141-6.744-14.276c1.139-3.134,5.6,1.239,5.6,1.239s27.71,8.949,51.95,11.003
			L167.64,406.271z"/>
		<g>
			<polygon style="fill:#407BFF;" points="168.349,405.589 165.857,403.914 162.653,413.754 166.5,413.754 			"/>
			<polygon style="opacity:0.6;fill:#FFFFFF;enable-background:new    ;" points="168.349,405.589 165.857,403.914 162.653,413.754 
				166.5,413.754 			"/>
		</g>
		<path style="fill:#407BFF;" d="M120.74,370.415l-31.479,3.871c-0.156-3.042-0.527-6.213-1.261-9.833
			c-0.795-3.88-2.013-8.27-3.854-13.584c-1.478-4.26-3.353-9.108-5.738-14.759c-1.875-4.467,0.501-9.272,5.107-10.317
			c1.236-0.277,2.541-0.544,3.889-0.778c5.245-0.907,9.557-1.607,14.301-1.763c1.564-0.052,3.197-0.052,4.77-0.035
			c5.651,0.095,10.559,5.98,11.415,11.51c0.475,3.085,1.158,5.392,1.633,12.832C120.049,353.841,120.377,360.045,120.74,370.415z"/>
		<path style="fill:#CE7A63;" d="M86.425,308.793c1.811,4.446,4.377,12.685,1.766,16.122c0,0,4.276-1.191,14.23,3.389
			c2.205-4.171,0.064-5.15,0.064-5.15c-5.371-0.581-5.991-4.368-5.804-8.019L86.425,308.793z"/>
		<path style="fill:#FFFFFF;" d="M100.335,327.392c-2.993,0.809-3.38,5.528-3.38,5.528s-7.955-4.274-10.723-7.638
			c1.016-0.703,2.463-2.026,2.463-2.026S98.34,325.853,100.335,327.392z"/>
		<path style="fill:#FFFFFF;" d="M103.17,326.545c0,0,2.719,0.385,4.128,3.97c-0.129-6.794-3.403-7.549-3.403-7.549
			s-1.039-0.564-2.803-0.059C103.665,323.884,103.17,326.545,103.17,326.545z"/>
		<path style="opacity:0.2;" d="M90.607,311.381l6.07,3.75c-0.047,0.864-0.044,1.735,0.061,2.568
			c-2.015-0.039-5.132-1.839-5.746-3.845C90.686,312.853,90.534,311.873,90.607,311.381z"/>
		<g>
			<path style="fill:#CE7A63;" d="M81.36,300.045c2.311,7.254,3.134,10.365,7.81,13.405c7.035,4.573,15.443,0.659,15.347-7.016
				c-0.086-6.908-3.85-17.611-11.805-19.12C84.875,285.829,79.049,292.791,81.36,300.045z"/>
			<path style="fill:#263238;" d="M90.997,300.114c0.167,0.617,0.627,1.053,1.025,0.974c0.399-0.079,0.586-0.644,0.418-1.261
				c-0.168-0.617-0.627-1.053-1.025-0.974C91.017,298.932,90.829,299.497,90.997,300.114z"/>
			<path style="fill:#263238;" d="M98.713,298.333c0.168,0.617,0.627,1.053,1.025,0.974c0.399-0.079,0.586-0.644,0.419-1.261
				c-0.168-0.617-0.627-1.053-1.025-0.974C98.733,297.151,98.545,297.715,98.713,298.333z"/>
			<path style="fill:#263238;" d="M98.964,297.141l1.349-0.719C100.313,296.422,99.876,297.73,98.964,297.141z"/>
			<path style="fill:#BA4D3C;" d="M96.711,300.16c0,0,1.756,2.452,3.244,3.507c-0.599,0.921-2.062,0.845-2.062,0.845L96.711,300.16z
				"/>
			<path style="fill:#263238;" d="M95.005,307.491c0.332-0.006,0.681-0.042,1.047-0.114c0.099-0.02,0.157-0.117,0.13-0.217
				c-0.027-0.099-0.127-0.165-0.229-0.146c-2.674,0.533-4.44-1.112-4.458-1.128c-0.077-0.074-0.194-0.075-0.262-0.004
				c-0.068,0.071-0.061,0.188,0.015,0.261C91.317,306.207,92.738,307.533,95.005,307.491z"/>
			<path style="fill:#263238;" d="M88.801,296.473c0.097-0.01,0.186-0.059,0.245-0.142c0.908-1.308,2.274-1.22,2.29-1.219
				c0.202,0.014,0.371-0.137,0.372-0.341c0-0.203-0.165-0.381-0.371-0.396c-0.072-0.005-1.786-0.117-2.913,1.507
				c-0.112,0.162-0.064,0.394,0.107,0.518C88.614,296.459,88.71,296.483,88.801,296.473z"/>
			<path style="fill:#263238;" d="M100.792,293.637c0.092,0.002,0.183-0.03,0.251-0.096c0.141-0.138,0.134-0.372-0.015-0.522
				c-1.495-1.508-3.166-1.251-3.238-1.239c-0.199,0.033-0.322,0.223-0.274,0.424c0.048,0.201,0.248,0.337,0.447,0.305
				c0.065-0.011,1.366-0.191,2.554,1.008C100.595,293.595,100.695,293.635,100.792,293.637z"/>
			<path style="fill:#263238;" d="M91.249,298.922l1.349-0.718C92.598,298.204,92.16,299.511,91.249,298.922z"/>
			<path style="fill:#263238;" d="M83.966,304.097c0,0,4.615-5.849,1.624-12.539c0,0,9.211-6.485,15.715,2.813
				c0,0-1.271-8.99-11.271-8.392c-10,0.598-18.184,16.335-4.948,23.551L83.966,304.097z"/>
			<path style="fill:#CE7A63;" d="M80.45,306.574c1.209,1.326,2.841,1.966,4.216,2.005c2.068,0.059,2.473-2.06,1.371-3.876
				c-0.992-1.635-3.263-3.635-5.085-2.829C79.156,302.668,79.068,305.058,80.45,306.574z"/>
			
				<path style="fill:none;stroke:#263238;stroke-width:0.4321;stroke-linecap:round;stroke-linejoin:round;stroke-miterlimit:10;" d="
				M84.821,291.756c0,0,11.642-5.855,18.597,6.448"/>
		</g>
		<path style="fill:#CE7A63;" d="M162.647,302.771l-0.395,2.03c-0.148,0.763-0.657,1.408-1.364,1.73l-3.307,1.507
			c-1.322,0.602-2.854,0.527-4.111-0.202l-0.778-0.452c0.424-3.411,3.396-6.786,3.396-6.786l0.74-1.056
			c0.66-0.94,1.875-1.183,2.792-0.557l2.111,1.44C162.46,300.923,162.825,301.856,162.647,302.771z"/>
		<path style="opacity:0.2;" d="M87.999,364.452c-0.795-3.88-2.013-8.27-3.854-13.584c2.731-5.453,5.452-10.076,5.452-10.076
			S99.345,354.783,87.999,364.452z"/>
		<g>
			<path style="fill:#CE7A63;" d="M87.157,339.839l0.717,2.82c0.255,0.968,0.534,1.935,0.825,2.897
				c0.573,1.927,1.207,3.831,1.874,5.71c0.677,1.877,1.435,3.698,2.233,5.482c0.826,1.767,1.723,3.457,2.702,5.06l-0.605-0.692
				c0.319,0.266,0.523,0.519,0.924,0.821c0.394,0.295,0.726,0.598,1.163,0.903c0.82,0.614,1.704,1.217,2.598,1.819
				c1.815,1.187,3.675,2.388,5.57,3.552l5.719,3.514l5.74,3.546c1.126,0.696,1.475,2.173,0.779,3.299
				c-0.593,0.959-1.756,1.353-2.783,1.019c-2.2-0.716-4.325-1.526-6.472-2.338c-2.133-0.833-4.247-1.72-6.356-2.644
				c-2.098-0.95-4.201-1.922-6.287-3.016c-1.045-0.559-2.092-1.127-3.154-1.765c-0.524-0.289-1.081-0.688-1.615-1.036
				c-0.53-0.34-1.151-0.865-1.715-1.303c-0.145-0.113-0.271-0.242-0.376-0.382l-0.229-0.31c-1.416-1.91-2.694-3.88-3.785-5.908
				c-1.09-2.025-2.077-4.084-2.924-6.177c-0.861-2.088-1.61-4.207-2.272-6.347c-0.322-1.073-0.629-2.15-0.913-3.238
				c-0.299-1.104-0.534-2.14-0.777-3.378c-0.51-2.603,1.187-5.127,3.791-5.637c2.511-0.492,4.947,1.069,5.575,3.516L87.157,339.839z
				"/>
		</g>
		<path style="fill:#407BFF;" d="M81.056,326.827c-5.473,3.593-5.92,9.232-3.408,20.148c3.792,2.066,13.256-0.058,13.256-0.058
			S88.526,330.026,81.056,326.827z"/>
	</g>
</g>
<g id="Character_2">
	<g>
		<path style="fill:#263238;" d="M335.022,180.785c0.259,0.555,0.175,1.143-0.188,1.312c-0.363,0.169-0.867-0.143-1.126-0.699
			c-0.259-0.555-0.175-1.142,0.188-1.312C334.259,179.917,334.763,180.229,335.022,180.785z"/>
		<path style="fill:#DE5753;" d="M335.248,181.903c0,0,0.232,3.792-0.438,5.985c1.41,0.458,2.884-0.739,2.884-0.739L335.248,181.903
			z"/>
		<path style="fill:#263238;" d="M335.617,176.753c0.07-0.052,0.122-0.13,0.139-0.222c0.037-0.195-0.091-0.384-0.286-0.42
			c-1.956-0.372-3.119,0.812-3.169,0.863c-0.138,0.143-0.133,0.371,0.01,0.509c0.143,0.137,0.372,0.131,0.508-0.009l0,0
			c0.038-0.039,0.957-0.953,2.517-0.656C335.439,176.837,335.539,176.811,335.617,176.753z"/>
		<path style="fill:#E4897B;" d="M352.45,175.496c2.691,4.982,8.323,13.532,13.681,13.924c0,0,2.41,5.317-5.56,11.879
			c-8.764,7.216-7.771-0.902-7.771-0.902c3.843-5.081,0.797-8.528-2.78-11.175L352.45,175.496z"/>
		<path style="fill:#E4897B;" d="M352.991,170.97c2.762,7.014,4.735,10.979,2.924,16.085c-2.725,7.681-12.597,8.484-17.399,2.437
			c-4.322-5.443-8.112-15.998-2.704-21.825C341.14,161.926,350.229,163.956,352.991,170.97z"/>
		<path style="fill:#263238;" d="M357.365,182.502c-1.435,3.266-14.03,5.219-17.504-3.374c0,0-6.532-1.599-9.535-6.475
			c-3.003-4.875-1.148-8.953,2.929-10.447c3.594-1.317,4.705,0.364,4.705,0.364s15.168-8.681,16.386-0.805
			C364.607,163.754,359.156,178.428,357.365,182.502z"/>
		<path style="fill:#E4897B;" d="M343.214,178.583c0.738,1.831,0.706,3.899,0.231,5.466c-0.714,2.358-2.762,2.072-3.979,0.191
			c-1.096-1.694-2.045-4.961-0.647-6.738C340.196,175.752,342.369,176.49,343.214,178.583z"/>
		<g>
			<path style="fill:#407BFF;" d="M368.46,189.912c-0.974-2.968-2.184-6.435-5.788-5.237c-3.17,1.054-12.42,6.764-13.13,8.742
				c1.635,1.321,2.377,3.757,2.377,3.757L368.46,189.912z"/>
			<path style="opacity:0.5;fill:#FAFAFA;" d="M368.46,189.912c-0.974-2.968-2.184-6.435-5.788-5.237
				c-3.17,1.054-12.42,6.764-13.13,8.742c1.635,1.321,2.377,3.757,2.377,3.757L368.46,189.912z"/>
		</g>
		<g>
			<path style="fill:#DC897C;" d="M382.368,189.217c4.724,2.052,9.115,4.301,13.501,6.842c4.377,2.548,8.592,5.291,12.724,8.64
				c1.212,1.017,2.174,1.979,3.072,2.962c0.901,0.977,1.73,1.956,2.553,2.934c1.617,1.961,3.124,3.962,4.598,5.969
				c2.927,4.034,5.631,8.155,8.168,12.444l-4.196,3.165l-10.082-10.499c-1.665-1.738-3.354-3.434-5.025-5.088
				c-0.84-0.812-1.679-1.618-2.518-2.358c-0.836-0.736-1.665-1.441-2.375-1.934c-1.811-1.232-3.837-2.47-5.836-3.643
				c-2.03-1.163-4.086-2.303-6.179-3.407c-4.167-2.184-8.507-4.346-12.688-6.319L382.368,189.217z"/>
		</g>
		<path style="fill:#E4897B;" d="M426.76,241.249l-2.534-4.51l7.744-2.337c0,0,1.561,3.639-0.145,6.569L426.76,241.249z"/>
		<polygon style="fill:#E4897B;" points="421.383,230.133 426.34,228.524 431.969,234.402 424.225,236.739 		"/>
		<g>
			<path style="fill:#263238;" d="M377.186,186.436c6.262-2.471,20.197,8.282,20.197,8.282l-5.185,15.735
				c0,0-6.567-1.025-13.081-6.716C372.291,197.773,370.783,188.963,377.186,186.436z"/>
		</g>
		<path style="opacity:0.2;" d="M386.264,198.26c3.956,3.369,6.164,6.096,6.164,11.494l-0.226,0.698c0,0-6.574-1.026-13.088-6.715
			c-0.406-0.357-0.797-0.724-1.167-1.095L386.264,198.26z"/>
		<g>
			<path style="fill:#263238;" d="M402.3,246.239c-11.96,2.14-33.87,6.06-39.69,7.11c-1.6-3.35-5.05-15.37-11.61-29.84
				c-1.77-3.93-3.78-8.03-6.04-12.2c-2.46-4.53-5.22-9.13-8.31-13.64c0,0,6.3-2.41,12.67-3.84c4.98-1.12,20.67-7.12,25.27-7.57
				c6.08-0.58,6.75,2.07,6.75,2.07S389.53,196.899,402.3,246.239z"/>
		</g>
		<path style="opacity:0.2;" d="M351,223.509c-1.77-3.93-3.78-8.03-6.04-12.2l2.58-1.61C347.54,209.699,353.58,218.769,351,223.509z
			"/>
		<path style="fill:#E4897B;" d="M301.794,217.766l-5.119-0.752l0.589,8.067c0,0,3.956,0.156,6.082-2.486L301.794,217.766z"/>
		<polygon style="fill:#E4897B;" points="289.474,216.426 291.364,223.359 297.264,225.081 296.675,217.013 		"/>
		<g>
			<path style="fill:#DC897C;" d="M343.027,206.213c-0.13,0.783-0.243,1.369-0.378,2.036c-0.127,0.647-0.281,1.283-0.434,1.918
				c-0.311,1.269-0.649,2.527-1.023,3.781c-0.733,2.511-1.653,4.983-2.731,7.441c-1.108,2.444-2.389,4.877-4.036,7.219
				c-1.655,2.322-3.665,4.625-6.394,6.464c-1.361,0.909-2.91,1.68-4.582,2.186c-0.207,0.067-0.421,0.118-0.632,0.175l-0.317,0.082
				l-0.495,0.101c-0.652,0.114-1.275,0.154-1.835,0.137c-1.14-0.028-2.087-0.223-2.938-0.473c-1.694-0.506-3.033-1.186-4.281-1.896
				c-1.244-0.708-2.353-1.503-3.421-2.3c-4.227-3.242-7.674-6.839-10.878-10.846l3.692-3.741c3.829,2.726,7.827,5.483,11.731,7.619
				c0.973,0.531,1.957,0.991,2.883,1.389c0.922,0.39,1.836,0.679,2.508,0.766c0.33,0.042,0.594,0.047,0.674,0.01
				c0.049-0.011,0.034-0.035-0.02-0.036c-0.017-0.002-0.033-0.001-0.049,0.003l0.121-0.046c0.08-0.032,0.162-0.053,0.242-0.09
				c0.642-0.26,1.274-0.631,1.901-1.127c1.257-0.983,2.488-2.431,3.549-4.139c1.071-1.704,2.031-3.622,2.85-5.65
				c0.848-2.018,1.549-4.148,2.209-6.305c0.324-1.08,0.621-2.174,0.892-3.271l0.391-1.641c0.124-0.524,0.256-1.13,0.339-1.547
				L343.027,206.213z"/>
		</g>
		<g>
			<path style="fill:#263238;" d="M348.727,205.711c4.551,8.509-9.539,21.713-9.539,21.713l-13.952-9.697
				c0,0,2.924-8.636,7.442-16.023C338.259,192.581,345.263,199.234,348.727,205.711z"/>
		</g>
		<g id="_x3C_Group_x3E__20_">
			<polygon style="fill:#E4897B;" points="345.28,409.501 337.17,410.351 336.76,405.651 335.65,392.861 343.76,392.001 
				344.99,406.131 			"/>
			<polygon style="fill:#E4897B;" points="415.759,408.471 407.9,408.471 407.51,406.699 407.461,406.48 405.014,395.13 
				404.963,394.901 404.019,390.55 411.888,390.55 			"/>
			<polygon style="opacity:0.2;enable-background:new    ;" points="343.76,392.001 344.99,406.131 336.76,405.651 335.65,392.861 
							"/>
			<polygon style="opacity:0.2;enable-background:new    ;" points="415.53,407.475 415.52,407.475 407.471,406.48 407.461,406.48 
				405.076,395.528 405.086,395.528 413.079,396.155 415.458,407.132 			"/>
			<path style="fill:#263238;" d="M406.81,407.998h9.55c0.322,0.002,0.6,0.226,0.67,0.54l1.55,7
				c0.133,0.627-0.268,1.242-0.895,1.375c-0.084,0.018-0.169,0.026-0.255,0.025c-3.09-0.05-5.34-0.24-9.22-0.24
				c-2.39,0-9.6,0.25-12.9,0.25c-3.3,0-3.73-3.26-2.38-3.56c6.06-1.32,10.62-3.15,12.56-4.89
				C405.849,408.168,406.322,407.989,406.81,407.998z"/>
			<path style="fill:#263238;" d="M336.31,407.748h9.55c0.322,0.002,0.6,0.226,0.67,0.54l1.55,7
				c0.133,0.627-0.268,1.242-0.895,1.375c-0.084,0.018-0.169,0.026-0.255,0.025c-3.09-0.05-5.34-0.24-9.22-0.24
				c-2.39,0-9.6,0.25-12.9,0.25c-3.3,0-3.73-3.26-2.38-3.56c6.06-1.32,10.62-3.15,12.56-4.89
				C335.349,407.918,335.822,407.739,336.31,407.748z"/>
			<g>
				<path style="fill:#407BFF;" d="M334.909,402.471l11.6,0.375c-4.22-77.56-6.19-81.516,31.456-118.15
					c0.88,11.08,1.87,22.577,2.84,32.158c0.61,5.93,0.79,11.109,1.78,14.904c6.699,25.688,22.824,71.156,22.824,71.156l11.32,0.505
					c0,0-14.169-62.308-15.626-82.615c-1.912-26.643,4.306-55.481,0.772-76.332l-39.541,6.705
					C326.465,303.66,319.903,315,334.909,402.471z"/>
				<path style="opacity:0.3;fill:#FFFFFF;" d="M334.909,402.471l11.6,0.375c-4.22-77.56-6.19-81.516,31.456-118.15
					c0.88,11.08,1.87,22.577,2.84,32.158c0.61,5.93,0.79,11.109,1.78,14.904c6.699,25.688,22.824,71.156,22.824,71.156l11.32,0.505
					c0,0-14.169-62.308-15.626-82.615c-1.912-26.643,4.306-55.481,0.772-76.332l-39.541,6.705
					C326.465,303.66,319.903,315,334.909,402.471z"/>
			</g>
			<path style="opacity:0.2;enable-background:new    ;" d="M377.965,284.651c0.88,11.08,1.87,22.6,2.84,32.18
				c1.42-13.83,3.16-23.69,3.16-23.69s1.63-1.34,6.11-8.49c4.48-7.16,0-20.5,0-20.5
				C390.215,276.551,377.965,284.651,377.965,284.651z"/>
			<polygon style="fill:#407BFF;" points="333.612,401.221 334.175,404.471 347.8,404.471 347.8,401.471 			"/>
			<polygon style="fill:#407BFF;" points="404.067,402.471 405.375,405.471 417.784,405.471 417.55,402.471 			"/>
			<polygon style="opacity:0.7;fill:#FFFFFF;" points="333.612,401.221 334.175,404.471 347.8,404.471 347.8,401.471 			"/>
			<polygon style="opacity:0.7;fill:#FFFFFF;" points="404.067,402.471 405.375,405.471 417.784,405.471 417.55,402.471 			"/>
		</g>
	</g>
</g>
</svg>
