<?xml version="1.0" standalone="no"?>
<!DOCTYPE svg PUBLIC "-//W3C//DTD SVG 20010904//EN"
 "http://www.w3.org/TR/2001/REC-SVG-20010904/DTD/svg10.dtd">
<svg version="1.0" xmlns="http://www.w3.org/2000/svg"
 width="626.000000pt" height="424.000000pt" viewBox="0 0 626.000000 424.000000"
 preserveAspectRatio="xMidYMid meet">

<g transform="translate(0.000000,424.000000) scale(0.100000,-0.100000)"
fill="#000000" stroke="none">
<path d="M1950 2740 l0 -610 -45 0 c-25 0 -45 -4 -45 -10 0 -5 24 -10 53 -10
l52 0 24 128 c13 70 26 133 28 140 4 8 27 12 69 12 36 0 64 4 64 10 0 6 24 10
54 10 30 0 58 -4 61 -10 3 -5 33 -10 65 -10 35 0 60 -5 62 -12 4 -11 -40 -260
-48 -267 -2 -2 -14 -5 -26 -5 -13 -1 -35 -10 -50 -20 -15 -10 -54 -21 -87 -25
-33 -4 -65 -12 -73 -17 -16 -13 -61 -30 -115 -44 -90 -23 -43 -30 170 -28
l212 3 3 24 c5 35 31 70 63 87 41 21 793 21 844 0 35 -15 75 -67 75 -98 0 -17
26 -18 415 -18 l415 0 0 690 0 690 -1120 0 -1120 0 0 -610z m668 448 c-3 -7
-11 -13 -18 -13 -7 0 -15 6 -17 13 -3 7 4 12 17 12 13 0 20 -5 18 -12z m472
-3 c0 -16 -362 -13 -368 3 -3 10 35 12 182 10 116 -2 186 -7 186 -13z m-890
-50 c0 -11 -12 -15 -49 -15 -47 0 -68 9 -54 24 3 3 28 6 55 6 36 0 48 -4 48
-15z m805 -15 c0 -12 -23 -15 -134 -18 -130 -3 -161 3 -146 27 4 8 51 11 143
9 114 -3 137 -6 137 -18z m1020 0 c0 -12 -23 -15 -139 -18 -134 -2 -166 3
-151 27 4 8 52 11 148 9 118 -3 142 -6 142 -18z m-1405 2 c0 -14 -11 -21 -26
-15 -21 8 -17 23 6 23 11 0 20 -4 20 -8z m1045 -1 c-7 -12 -335 -13 -335 -1 0
4 77 9 171 10 110 0 168 -3 164 -9z m-1390 -51 c0 -11 -15 -16 -59 -18 -59 -3
-84 7 -71 28 11 18 130 9 130 -10z m338 -5 c1 -5 -6 -11 -15 -13 -11 -2 -18 3
-18 13 0 17 30 18 33 0z m402 0 c0 -11 -129 -20 -152 -11 -8 3 -11 11 -8 16 9
14 160 9 160 -5z m525 0 c0 -13 -34 -15 -244 -15 -222 0 -268 4 -249 24 3 3
116 6 250 6 209 0 243 -2 243 -15z m200 0 c0 -12 -15 -15 -74 -15 -69 0 -95 8
-79 24 3 3 39 6 80 6 58 0 73 -3 73 -15z m190 0 c0 -12 -15 -15 -74 -15 -69 0
-95 8 -79 24 3 3 39 6 80 6 58 0 73 -3 73 -15z m-1572 -62 c3 -10 -23 -13
-107 -13 -102 0 -123 5 -104 24 13 12 206 2 211 -11z m255 2 c1 -5 -6 -11 -15
-13 -11 -2 -18 3 -18 13 0 17 30 18 33 0z m867 0 c0 -13 -41 -15 -309 -15
-281 0 -334 4 -314 24 3 3 145 6 315 6 267 0 308 -2 308 -15z m-867 -60 c1 -5
-6 -11 -15 -13 -11 -2 -18 3 -18 13 0 17 30 18 33 0z m467 0 c0 -12 -19 -15
-109 -15 -100 0 -131 6 -114 24 3 3 55 6 115 6 89 0 108 -3 108 -15z m720 0
c0 -12 -15 -15 -75 -15 -60 0 -75 3 -75 15 0 12 15 15 75 15 60 0 75 -3 75
-15z m195 0 c0 -6 -34 -11 -77 -13 -66 -2 -78 0 -78 13 0 13 12 15 78 13 43
-2 77 -7 77 -13z m-1725 -10 c0 -12 -16 -15 -84 -15 -78 0 -105 7 -89 24 3 3
44 6 90 6 67 0 83 -3 83 -15z m343 -50 c1 -5 -6 -11 -15 -13 -11 -2 -18 3 -18
13 0 17 30 18 33 0z m507 0 c0 -16 -262 -13 -268 3 -3 10 25 12 132 10 82 -2
136 -7 136 -13z m238 3 c-3 -9 -31 -13 -93 -13 -62 0 -90 4 -92 13 -4 9 19 12
92 12 73 0 96 -3 93 -12z m-1003 -23 c0 -6 -44 -11 -107 -13 -93 -2 -108 0
-108 13 0 13 15 15 108 13 63 -2 107 -7 107 -13z m258 -50 c1 -5 -6 -11 -15
-13 -11 -2 -18 3 -18 13 0 17 30 18 33 0z m407 0 c0 -12 -19 -15 -114 -15
-105 0 -136 6 -119 24 3 3 57 6 120 6 94 0 113 -3 113 -15z m195 0 c0 -11
-138 -20 -162 -11 -8 3 -11 11 -8 16 9 14 170 9 170 -5z m203 -2 c3 -10 -18
-13 -82 -13 -71 0 -86 3 -86 15 0 13 14 15 82 13 54 -2 83 -7 86 -15z m-1200
-15 c-7 -20 -68 -23 -68 -4 0 12 10 16 36 16 24 0 34 -4 32 -12z m400 -50 c-3
-7 -11 -13 -18 -13 -7 0 -15 6 -17 13 -3 7 4 12 17 12 13 0 20 -5 18 -12z
m660 0 c-3 -9 -38 -14 -116 -16 -95 -2 -112 0 -112 13 0 13 18 15 116 15 88 0
115 -3 112 -12z m392 -3 c0 -13 -23 -15 -172 -13 -126 2 -172 6 -176 16 -3 9
36 12 172 12 151 0 176 -2 176 -15z m358 3 c-3 -10 -43 -14 -143 -16 -143 -3
-171 0 -160 18 10 16 308 13 303 -2z m-1740 -15 c3 -10 -21 -13 -97 -13 -93 0
-113 5 -94 24 13 12 186 2 191 -11z m325 -48 c1 -5 -6 -11 -15 -13 -11 -2 -18
3 -18 13 0 17 30 18 33 0z m927 0 c0 -13 -34 -15 -244 -15 -222 0 -268 4 -249
24 3 3 116 6 250 6 209 0 243 -2 243 -15z m200 0 c0 -12 -15 -15 -74 -15 -69
0 -95 8 -79 24 3 3 39 6 80 6 58 0 73 -3 73 -15z m190 0 c0 -12 -15 -15 -74
-15 -69 0 -95 8 -79 24 3 3 39 6 80 6 58 0 73 -3 73 -15z m-1700 -20 c0 -11
-11 -15 -40 -15 -29 0 -40 4 -40 15 0 11 11 15 40 15 29 0 40 -4 40 -15z m388
-37 c-3 -7 -11 -13 -18 -13 -7 0 -15 6 -17 13 -3 7 4 12 17 12 13 0 20 -5 18
-12z m522 -3 c0 -13 -22 -15 -140 -15 -118 0 -140 2 -140 15 0 13 22 15 140
15 118 0 140 -2 140 -15z m195 5 c4 -6 -25 -10 -80 -10 -55 0 -84 4 -80 10 3
6 39 10 80 10 41 0 77 -4 80 -10z m185 0 c0 -6 -33 -10 -80 -10 -47 0 -80 4
-80 10 0 6 33 10 80 10 47 0 80 -4 80 -10z m-1170 -35 c0 -12 -18 -15 -100
-15 -82 0 -100 3 -100 15 0 12 18 15 100 15 82 0 100 -3 100 -15z m270 -25 c0
-4 -7 -10 -15 -13 -16 -7 -29 8 -20 23 6 10 35 2 35 -10z m455 0 c0 -12 -19
-15 -100 -18 -100 -2 -134 6 -120 27 4 8 41 11 113 9 87 -2 107 -6 107 -18z
m731 9 c11 -19 -18 -29 -83 -29 -60 0 -81 9 -68 30 9 14 142 13 151 -1z m189
-9 c0 -12 -16 -16 -69 -18 -69 -3 -95 6 -81 28 4 7 33 10 78 8 56 -2 72 -6 72
-18z m-395 0 c0 -6 -88 -10 -245 -10 -157 0 -245 4 -245 10 0 6 88 10 245 10
157 0 245 -4 245 -10z m-1302 -42 c-3 -9 -33 -13 -103 -13 -70 0 -100 4 -102
13 -4 9 21 12 102 12 81 0 106 -3 103 -12z m320 -16 c2 -7 -6 -12 -17 -12 -21
0 -27 11 -14 24 9 9 26 2 31 -12z m502 3 c0 -6 -53 -11 -135 -13 -123 -2 -148
2 -128 22 11 11 263 2 263 -9z m238 -2 c3 -10 -20 -13 -92 -13 -88 0 -108 5
-89 24 13 12 176 2 181 -11z m-1001 -47 c17 -17 -29 -26 -132 -26 -113 0 -154
10 -125 30 17 12 245 8 257 -4z m258 -5 c7 -12 -12 -24 -25 -16 -11 7 -4 25
10 25 5 0 11 -4 15 -9z m433 -8 c3 -10 -20 -13 -92 -13 -80 0 -96 3 -96 15 0
13 15 15 92 13 62 -2 93 -7 96 -15z m-433 -72 c7 -12 -12 -24 -25 -16 -11 7
-4 25 10 25 5 0 11 -4 15 -9z m355 -6 c0 -12 -17 -15 -89 -15 -83 0 -111 7
-94 24 3 3 46 6 95 6 72 0 88 -3 88 -15z m-352 -57 c-3 -7 -11 -13 -18 -13 -7
0 -15 6 -17 13 -3 7 4 12 17 12 13 0 20 -5 18 -12z m862 -3 c0 -10 -592 -20
-618 -10 -7 3 -10 9 -7 15 9 14 625 9 625 -5z m-405 -55 c0 -12 -19 -16 -99
-18 -115 -3 -134 1 -116 23 19 22 215 17 215 -5z m-457 -2 c-3 -7 -11 -13 -18
-13 -7 0 -15 6 -17 13 -3 7 4 12 17 12 13 0 20 -5 18 -12z m982 2 c0 -6 -87
-10 -240 -10 -153 0 -240 4 -240 10 0 6 87 10 240 10 153 0 240 -4 240 -10z
m198 -2 c-3 -9 -27 -13 -73 -13 -46 0 -70 4 -72 13 -4 9 15 12 72 12 57 0 76
-3 73 -12z m197 2 c8 -14 -33 -22 -95 -18 -31 2 -55 8 -58 16 -5 15 143 18
153 2z m-872 -47 c4 -3 2 -12 -4 -20 -8 -9 -42 -13 -128 -13 -115 0 -150 8
-137 29 8 12 258 16 269 4z m232 -13 c0 -12 -17 -16 -84 -18 -83 -3 -110 5
-96 28 4 7 37 10 93 8 69 -2 87 -6 87 -18z m-735 0 c0 -5 -9 -10 -20 -10 -11
0 -20 5 -20 10 0 6 9 10 20 10 11 0 20 -4 20 -10z m-5 -49 c7 -12 -12 -24 -25
-16 -11 7 -4 25 10 25 5 0 11 -4 15 -9z m355 -6 c0 -12 -17 -15 -95 -15 -87 0
-107 5 -88 23 3 4 46 7 95 7 72 0 88 -3 88 -15z"/>
<path d="M1292 3210 c0 -14 2 -19 5 -12 2 6 2 18 0 25 -3 6 -5 1 -5 -13z"/>
<path d="M1152 3190 c0 -14 2 -19 5 -12 2 6 2 18 0 25 -3 6 -5 1 -5 -13z"/>
<path d="M4668 2903 c7 -3 16 -2 19 1 4 3 -2 6 -13 5 -11 0 -14 -3 -6 -6z"/>
<path d="M4828 2903 c6 -2 18 -2 25 0 6 3 1 5 -13 5 -14 0 -19 -2 -12 -5z"/>
<path d="M4758 2873 c7 -3 16 -2 19 1 4 3 -2 6 -13 5 -11 0 -14 -3 -6 -6z"/>
<path d="M4668 2843 c6 -2 18 -2 25 0 6 3 1 5 -13 5 -14 0 -19 -2 -12 -5z"/>
<path d="M4748 2843 c7 -3 16 -2 19 1 4 3 -2 6 -13 5 -11 0 -14 -3 -6 -6z"/>
<path d="M1515 2760 c-3 -5 -19 -7 -34 -4 -16 4 -32 1 -35 -5 -4 -6 -17 -11
-29 -11 -12 0 -35 -14 -51 -30 -35 -38 -45 -109 -23 -163 17 -40 57 -69 57
-41 0 12 6 15 26 10 22 -6 24 -5 15 13 -15 27 -14 66 2 79 6 5 38 12 69 14 72
6 98 27 98 79 0 21 -7 45 -16 53 -17 18 -69 22 -79 6z"/>
<path d="M4472 2420 c-64 -29 -102 -59 -102 -80 0 -22 54 -70 80 -70 9 0 37 7
60 15 39 14 46 14 67 0 14 -9 23 -25 23 -40 0 -26 14 -33 26 -13 5 8 11 6 20
-6 11 -16 14 -15 28 13 32 60 20 102 -46 173 -33 35 -91 38 -156 8z"/>
<path d="M2447 2032 c-14 -16 -17 -45 -17 -190 l0 -172 150 0 150 0 0 -270 0
-270 -150 0 -150 0 0 -65 0 -65 150 0 150 0 0 -175 0 -175 -150 0 -150 0 0
-71 c0 -119 -39 -109 410 -109 l389 0 15 22 c13 19 16 58 16 225 l0 203 -200
0 -200 0 0 175 0 175 200 0 200 0 0 130 0 130 -90 0 -90 0 0 125 0 125 91 0
91 0 -4 121 c-4 149 -4 149 -129 149 -68 0 -88 -3 -93 -15 -4 -13 -37 -15
-211 -15 -174 0 -207 2 -211 15 -10 24 -145 21 -167 -3z m746 -29 c-7 -2 -21
-2 -30 0 -10 3 -4 5 12 5 17 0 24 -2 18 -5z m7 -28 c0 -10 -8 -14 -22 -12 -32
5 -35 27 -4 27 16 0 26 -6 26 -15z"/>
<path d="M4226 1847 c3 -10 9 -15 12 -12 3 3 0 11 -7 18 -10 9 -11 8 -5 -6z"/>
<path d="M4241 1784 c0 -11 3 -14 6 -6 3 7 2 16 -1 19 -3 4 -6 -2 -5 -13z"/>
<path d="M1705 1583 c-51 -10 -114 -13 -227 -10 l-158 4 0 -63 c0 -35 7 -110
16 -167 13 -88 14 -131 4 -317 -7 -118 -10 -271 -8 -340 l3 -125 29 -3 c66 -8
70 -3 95 130 34 179 98 504 112 566 6 31 15 50 20 45 11 -11 39 -177 79 -478
18 -132 38 -246 44 -254 7 -9 23 -11 49 -8 21 3 40 7 42 9 1 1 10 145 20 318
14 271 15 342 4 512 -14 227 0 207 -124 181z"/>
<path d="M4303 1593 c15 -2 37 -2 50 0 12 2 0 4 -28 4 -27 0 -38 -2 -22 -4z"/>
<path d="M4340 1398 c-92 -19 -206 -59 -257 -88 -97 -56 -113 -122 -120 -481
l-5 -256 40 -7 c56 -9 70 -1 77 47 4 23 30 147 58 275 47 218 52 234 75 243
14 5 26 8 28 6 2 -2 11 -41 19 -88 19 -97 100 -435 115 -473 8 -22 16 -26 49
-26 22 0 42 4 45 8 2 4 8 91 12 193 6 170 -2 290 -22 343 -5 13 2 16 47 16 69
0 220 17 281 31 26 6 59 20 73 31 24 19 25 24 25 122 l0 103 -47 -10 c-82 -17
-341 -13 -393 6 -25 9 -47 16 -50 16 -3 -1 -25 -5 -50 -11z"/>
<path d="M1335 514 c-17 -17 -30 -45 -41 -89 l-6 -25 86 0 c83 0 86 1 86 23 0
12 -10 40 -23 62 -18 31 -29 41 -53 43 -20 2 -38 -3 -49 -14z"/>
<path d="M1748 523 c-31 -4 -38 -9 -43 -34 -4 -16 -4 -42 0 -59 l7 -30 148 0
c118 0 149 3 153 14 9 24 -16 43 -78 61 -33 9 -75 25 -93 36 -18 10 -39 18
-45 17 -7 -1 -29 -3 -49 -5z"/>
<path d="M3880 484 c-41 -19 -78 -40 -82 -47 -22 -34 -10 -37 137 -37 l145 0
0 55 0 55 -42 0 c-24 0 -52 2 -63 5 -11 2 -54 -12 -95 -31z"/>
<path d="M4370 488 c-11 -18 -20 -45 -20 -60 l0 -28 81 0 81 0 -7 28 c-14 58
-39 87 -78 90 -32 3 -39 -1 -57 -30z"/>
<path d="M3238 403 c7 -3 16 -2 19 1 4 3 -2 6 -13 5 -11 0 -14 -3 -6 -6z"/>
<path d="M3683 403 c9 -2 23 -2 30 0 6 3 -1 5 -18 5 -16 0 -22 -2 -12 -5z"/>
<path d="M4903 403 c9 -2 25 -2 35 0 9 3 1 5 -18 5 -19 0 -27 -2 -17 -5z"/>
</g>
</svg>
