<?xml version="1.0" encoding="utf-8"?>
<!-- Generator: Adobe Illustrator 27.5.0, SVG Export Plug-In . SVG Version: 6.00 Build 0)  -->
<svg version="1.1" xmlns="http://www.w3.org/2000/svg" xmlns:xlink="http://www.w3.org/1999/xlink" x="0px" y="0px"
	 viewBox="0 0 750 500" style="enable-background:new 0 0 750 500;" xml:space="preserve">
<g id="BACKGROUND">
</g>
<g id="OBJECTS">
	<g>
		<path style="fill:#686DE0;" d="M549.201,402.188c0,4.884-3.959,8.844-8.844,8.844s-8.844-3.959-8.844-8.844
			s3.96-8.844,8.844-8.844S549.201,397.303,549.201,402.188z"/>
		<circle style="fill:#F9CA24;" cx="556.545" cy="413.236" r="5.261"/>
		<path style="fill:#F6E58D;" d="M548.212,428.123c0,2.169-1.758,3.927-3.927,3.927s-3.927-1.758-3.927-3.927
			c0-2.169,1.758-3.927,3.927-3.927S548.212,425.954,548.212,428.123z"/>
		
			<ellipse transform="matrix(0.9248 -0.3804 0.3804 0.9248 -119.5929 124.1648)" style="fill:#686DE0;" cx="254.347" cy="364.658" rx="9.861" ry="9.861"/>
		<path style="fill:#F0932B;" d="M268.241,374.519c0,3.247-2.632,5.879-5.879,5.879c-3.247,0-5.879-2.632-5.879-5.879
			s2.632-5.879,5.879-5.879C265.609,368.641,268.241,371.273,268.241,374.519z"/>
		
			<ellipse transform="matrix(0.229 -0.9734 0.9734 0.229 390.2971 789.7734)" style="fill:#F0932B;" cx="693.701" cy="148.508" rx="7.891" ry="7.891"/>
		<path style="fill:#F6E58D;" d="M681.232,132.824c0,1.805-1.463,3.268-3.268,3.268s-3.268-1.463-3.268-3.268
			c0-1.805,1.463-3.268,3.268-3.268S681.232,131.019,681.232,132.824z"/>
		
			<ellipse transform="matrix(0.9232 -0.3844 0.3844 0.9232 -9.0023 270.2917)" style="fill:#686DE0;" cx="671.648" cy="157.666" rx="7.311" ry="7.311"/>
		<path style="fill:#F6E58D;" d="M46.62,237.05c-0.732,1.855-2.829,2.764-4.684,2.032c-1.854-0.732-2.764-2.829-2.032-4.684
			c0.732-1.854,2.829-2.764,4.684-2.032C46.443,233.098,47.353,235.195,46.62,237.05z"/>
		<path style="fill:#686DE0;" d="M52.568,255.966c-0.425,1.076-1.642,1.604-2.718,1.179c-1.076-0.425-1.604-1.642-1.179-2.718
			c0.425-1.076,1.642-1.604,2.718-1.179C52.465,253.673,52.993,254.89,52.568,255.966z"/>
		<path style="fill:#F0932B;" d="M65.327,237.131c-1.536,3.89-5.935,5.798-9.824,4.262c-3.89-1.536-5.798-5.935-4.262-9.824
			c1.536-3.89,5.935-5.798,9.824-4.262C64.955,228.842,66.863,233.241,65.327,237.131z"/>
		<path style="fill:#F6E58D;" d="M242.871,413.236c0,1.934-1.568,3.502-3.502,3.502c-1.934,0-3.502-1.568-3.502-3.502
			c0-1.934,1.568-3.502,3.502-3.502C241.303,409.734,242.871,411.302,242.871,413.236z"/>
		
			<ellipse transform="matrix(0.9311 -0.3648 0.3648 0.9311 -75.9676 82.6205)" style="fill:#686DE0;" cx="180.714" cy="242.398" rx="8.233" ry="8.233"/>
	</g>
	<g>
		<g>
			<path style="fill:#535C68;" d="M187.504,213.495H73.292c-5.522,0-9.999-4.477-9.999-9.999V35.305
				c0-5.522,4.477-9.999,9.999-9.999h114.212c5.522,0,9.999,4.477,9.999,9.999v168.192
				C197.503,209.019,193.026,213.495,187.504,213.495z"/>
			<g>
				<defs>
					<path id="SVGID_1_" d="M187.504,213.495H73.292c-5.522,0-9.999-4.477-9.999-9.999V35.305c0-5.522,4.477-9.999,9.999-9.999
						h114.212c5.522,0,9.999,4.477,9.999,9.999v168.192C197.503,209.019,193.026,213.495,187.504,213.495z"/>
				</defs>
				<clipPath id="SVGID_00000164505455512929633830000008543387128416498062_">
					<use xlink:href="#SVGID_1_"  style="overflow:visible;"/>
				</clipPath>
				
					<ellipse transform="matrix(0.7071 -0.7071 0.7071 0.7071 17.6356 135.634)" style="clip-path:url(#SVGID_00000164505455512929633830000008543387128416498062_);fill:#686DE0;" cx="172.543" cy="46.529" rx="35.88" ry="35.88"/>
				
					<ellipse transform="matrix(0.3827 -0.9239 0.9239 0.3827 -17.5499 123.3269)" style="clip-path:url(#SVGID_00000164505455512929633830000008543387128416498062_);fill:#F9CA24;" cx="83.511" cy="74.796" rx="28.789" ry="28.789"/>
				
					<circle style="clip-path:url(#SVGID_00000164505455512929633830000008543387128416498062_);fill:#FF7979;" cx="91.524" cy="11.934" r="54.165"/>
				
					<ellipse transform="matrix(0.8023 -0.5969 0.5969 0.8023 -43.5923 79.3924)" style="clip-path:url(#SVGID_00000164505455512929633830000008543387128416498062_);fill:#686DE0;" cx="98.057" cy="105.505" rx="17.397" ry="17.397"/>
				<path style="clip-path:url(#SVGID_00000164505455512929633830000008543387128416498062_);fill:#F9CA24;" d="M180.122,83.13
					c0,3.155-2.557,5.712-5.712,5.712c-3.155,0-5.712-2.557-5.712-5.712c0-3.155,2.557-5.712,5.712-5.712
					C177.565,77.418,180.122,79.975,180.122,83.13z"/>
				<path style="clip-path:url(#SVGID_00000164505455512929633830000008543387128416498062_);fill:#FF7979;" d="M168.067,109.217
					c2.154,3.731,0.876,8.502-2.855,10.656c-3.731,2.154-8.502,0.876-10.656-2.855c-2.154-3.731-0.876-8.502,2.855-10.656
					C161.142,104.207,165.913,105.486,168.067,109.217z"/>
			</g>
			<circle style="fill:#535C68;" cx="130.398" cy="62.632" r="21.737"/>
			<g>
				<defs>
					<circle id="SVGID_00000178900390215465638300000002965077384579912076_" cx="130.398" cy="62.632" r="21.737"/>
				</defs>
				<clipPath id="SVGID_00000026153632043900520860000008766489320116872331_">
					<use xlink:href="#SVGID_00000178900390215465638300000002965077384579912076_"  style="overflow:visible;"/>
				</clipPath>
				<g style="clip-path:url(#SVGID_00000026153632043900520860000008766489320116872331_);">
					<circle style="fill:#FFFFFF;" cx="130.398" cy="58.393" r="6.84"/>
					<path style="fill:#FFFFFF;" d="M141.889,89.542h-22.983V75.856c0-4.432,3.593-8.024,8.024-8.024h6.934
						c4.432,0,8.024,3.593,8.024,8.024V89.542z"/>
				</g>
			</g>
			<path style="fill:#95AFC0;" d="M177.171,144.854H83.625c-1.792,0-3.245-1.453-3.245-3.245v-8.727
				c0-1.792,1.453-3.245,3.245-3.245h93.546c1.792,0,3.245,1.453,3.245,3.245v8.727
				C180.415,143.402,178.963,144.854,177.171,144.854z"/>
			<path style="fill:#95AFC0;" d="M177.171,169.083H83.625c-1.792,0-3.245-1.453-3.245-3.245v-8.727
				c0-1.792,1.453-3.245,3.245-3.245h93.546c1.792,0,3.245,1.453,3.245,3.245v8.727C180.415,167.63,178.963,169.083,177.171,169.083
				z"/>
			<path style="fill:#95AFC0;" d="M115.546,187.556H83.682c-1.823,0-3.301-1.478-3.301-3.301l0,0c0-1.823,1.478-3.301,3.301-3.301
				h31.864c1.823,0,3.301,1.478,3.301,3.301l0,0C118.847,186.078,117.369,187.556,115.546,187.556z"/>
			<path style="fill:#95AFC0;" d="M176.162,187.556h-31.864c-1.823,0-3.301-1.478-3.301-3.301l0,0c0-1.823,1.478-3.301,3.301-3.301
				h31.864c1.823,0,3.301,1.478,3.301,3.301l0,0C179.464,186.078,177.986,187.556,176.162,187.556z"/>
		</g>
		<g>
			<path style="fill:#DFF9FB;" d="M449.443,268.585H223.521c-7.243,0-13.115-5.872-13.115-13.115V67.966
				c0-7.243,5.872-13.115,13.115-13.115h225.922c7.243,0,13.115,5.872,13.115,13.115V255.47
				C462.558,262.713,456.687,268.585,449.443,268.585z"/>
			<g>
				<defs>
					<path id="SVGID_00000111159169174922772010000012415745539520671125_" d="M449.443,268.585H223.521
						c-7.243,0-13.115-5.872-13.115-13.115V67.966c0-7.243,5.872-13.115,13.115-13.115h225.922c7.243,0,13.115,5.872,13.115,13.115
						V255.47C462.558,262.713,456.687,268.585,449.443,268.585z"/>
				</defs>
				<clipPath id="SVGID_00000106861530878234842560000000168685262596968066_">
					<use xlink:href="#SVGID_00000111159169174922772010000012415745539520671125_"  style="overflow:visible;"/>
				</clipPath>
				
					<rect x="207.843" y="54.851" style="clip-path:url(#SVGID_00000106861530878234842560000000168685262596968066_);fill:#686DE0;" width="257.491" height="21.878"/>
				<path style="clip-path:url(#SVGID_00000106861530878234842560000000168685262596968066_);fill:#DFF9FB;" d="M639.961,212.523
					h-139.46c-6.743,0-12.21-5.466-12.21-12.21V-5.061c0-6.743,5.466-12.21,12.21-12.21h139.46c6.743,0,12.21,5.466,12.21,12.21
					v205.374C652.171,207.056,646.704,212.523,639.961,212.523z"/>
			</g>
			<g>
				<path style="fill:#EB4D4B;" d="M232,65.79c0,1.772-1.436,3.208-3.208,3.208s-3.208-1.436-3.208-3.208
					c0-1.772,1.436-3.208,3.208-3.208S232,64.018,232,65.79z"/>
				<path style="fill:#F9CA24;" d="M245.785,65.79c0,1.772-1.436,3.208-3.208,3.208c-1.772,0-3.208-1.436-3.208-3.208
					c0-1.772,1.436-3.208,3.208-3.208C244.349,62.582,245.785,64.018,245.785,65.79z"/>
				<path style="fill:#F9CA24;" d="M259.571,65.79c0,1.772-1.436,3.208-3.208,3.208c-1.772,0-3.208-1.436-3.208-3.208
					c0-1.772,1.436-3.208,3.208-3.208C258.135,62.582,259.571,64.018,259.571,65.79z"/>
			</g>
			<rect x="401.193" y="84.508" style="fill:#686DE0;" width="51.237" height="51.237"/>
			<rect x="221.306" y="207.388" style="fill:#FF7979;" width="51.237" height="51.237"/>
			<g>
				<rect x="221.306" y="84.508" style="fill:#F9CA24;" width="51.237" height="51.237"/>
				<polygon style="fill:#F0932B;" points="221.306,135.746 272.543,84.508 272.543,135.746 				"/>
			</g>
			<g>
				<rect x="281.269" y="84.508" style="fill:#FF7979;" width="51.237" height="51.237"/>
				<g>
					<rect x="293.548" y="93.718" style="fill:#DFF9FB;" width="8.695" height="32.817"/>
					<rect x="311.531" y="93.718" style="fill:#DFF9FB;" width="8.695" height="32.817"/>
				</g>
			</g>
			<g>
				<rect x="341.231" y="84.508" style="fill:#F6E58D;" width="51.237" height="51.237"/>
				<rect x="350.161" y="93.438" style="fill:#DFF9FB;" width="33.378" height="33.378"/>
			</g>
			<circle style="fill:#F6E58D;" cx="426.812" cy="110.127" r="12.622"/>
			<g>
				<rect x="221.306" y="143.985" style="fill:#F6E58D;" width="51.237" height="51.237"/>
				<polygon style="fill:#F0932B;" points="246.925,154.944 229.998,184.263 263.852,184.263 				"/>
			</g>
			<g>
				<rect x="281.269" y="143.985" style="fill:#686DE0;" width="51.237" height="51.237"/>
				<polygon style="fill:#F9CA24;" points="332.506,195.222 281.269,165.364 281.269,195.222 				"/>
			</g>
			<g>
				<rect x="341.231" y="143.985" style="fill:#F0932B;" width="51.237" height="51.237"/>
				<path style="fill:#F9CA24;" d="M386.796,172.937c0,8.21-6.656,14.866-14.866,14.866c-8.21,0-14.866-6.656-14.866-14.866
					c0-8.21,6.656-14.866,14.866-14.866C380.14,158.071,386.796,164.727,386.796,172.937z"/>
				<polygon style="fill:#686DE0;" points="361.271,195.222 392.468,143.985 392.468,195.222 				"/>
			</g>
			<g>
				<rect x="401.193" y="143.985" style="fill:#FF7979;" width="51.237" height="51.237"/>
				<polygon style="fill:#F9CA24;" points="401.193,185.489 452.431,172.937 452.431,195.222 401.193,195.222 				"/>
				<polygon style="fill:#F9CA24;" points="452.431,153.717 401.193,166.269 401.193,143.985 452.431,143.985 				"/>
			</g>
			<path style="fill:#F9CA24;" d="M247.322,214.224v18.773h-19.19c0,10.379,8.414,18.793,18.793,18.793
				c10.379,0,18.793-8.414,18.793-18.793C265.718,222.752,257.516,214.437,247.322,214.224z"/>
			<g>
				<rect x="281.269" y="207.388" style="fill:#F0932B;" width="51.237" height="51.237"/>
				<rect x="281.269" y="233.007" style="fill:#686DE0;" width="51.237" height="25.619"/>
			</g>
			<g>
				<rect x="341.231" y="207.388" style="fill:#686DE0;" width="51.237" height="51.237"/>
				<g>
					<rect x="350.947" y="218.032" style="fill:#F6E58D;" width="31.805" height="11.166"/>
					<rect x="350.947" y="236.815" style="fill:#F6E58D;" width="31.805" height="11.166"/>
				</g>
			</g>
			<g>
				<rect x="401.193" y="207.388" style="fill:#F6E58D;" width="51.237" height="51.237"/>
				<polygon style="fill:#F0932B;" points="401.193,207.388 452.431,258.625 401.193,258.625 				"/>
			</g>
		</g>
		<g>
			<path style="fill:#686DE0;" d="M547.916,125.529h-52.722c-7.544,0-13.66-6.116-13.66-13.66V59.147
				c0-7.544,6.116-13.66,13.66-13.66h52.722c7.544,0,13.66,6.116,13.66,13.66v52.722
				C561.576,119.413,555.46,125.529,547.916,125.529z"/>
			<g>
				<circle style="fill:#FFFFFF;" cx="521.555" cy="68.15" r="9.768"/>
				<path style="fill:#FFFFFF;" d="M537.965,112.634h-32.821V93.09c0-6.329,5.13-11.459,11.459-11.459h9.903
					c6.329,0,11.459,5.131,11.459,11.459V112.634z"/>
			</g>
		</g>
		<g>
			<path style="fill:#DFF9FB;" d="M670.789,104.942h-79.263c-3.772,0-6.831-3.058-6.831-6.831V39.885
				c0-3.773,3.058-6.831,6.831-6.831h79.262c3.773,0,6.831,3.058,6.831,6.831v58.227
				C677.62,101.884,674.561,104.942,670.789,104.942z"/>
			<path style="fill:#686DE0;" d="M667.895,100.255H594.42c-2.466,0-4.464-1.999-4.464-4.465V42.206
				c0-2.466,1.999-4.465,4.464-4.465h73.474c2.466,0,4.464,1.999,4.464,4.465V95.79C672.359,98.256,670.36,100.255,667.895,100.255z
				"/>
			
				<ellipse transform="matrix(0.8348 -0.5506 0.5506 0.8348 75.9789 369.1687)" style="fill:#F6E58D;" cx="653.137" cy="57.98" rx="10.526" ry="10.526"/>
			<g>
				<defs>
					<path id="SVGID_00000031917390075895488140000008716760603950536378_" d="M667.895,100.255H594.42
						c-2.466,0-4.464-1.999-4.464-4.465V42.206c0-2.466,1.999-4.465,4.464-4.465h73.474c2.466,0,4.464,1.999,4.464,4.465V95.79
						C672.359,98.256,670.36,100.255,667.895,100.255z"/>
				</defs>
				<clipPath id="SVGID_00000173876782101908899400000008105953224963479694_">
					<use xlink:href="#SVGID_00000031917390075895488140000008716760603950536378_"  style="overflow:visible;"/>
				</clipPath>
				<polygon style="clip-path:url(#SVGID_00000173876782101908899400000008105953224963479694_);fill:#DFF9FB;" points="
					623.207,53.879 589.396,100.255 657.018,100.255 				"/>
			</g>
		</g>
	</g>
	<g>
		<path style="fill:#DFF9FB;" d="M317.383,326.669c-0.07-6.676-5.497-12.068-12.19-12.068c-1.787,0-3.48,0.394-5.009,1.085
			c-3.362-6.658-10.259-11.227-18.228-11.227c-10.236,0-18.711,7.535-20.184,17.36c-0.6-0.185-1.237-0.286-1.897-0.286
			c-3.105,0-5.695,2.206-6.29,5.135H317.383z"/>
		<path style="fill:#DFF9FB;" d="M309.754,295.324c0.034-3.214,2.647-5.81,5.869-5.81c0.861,0,1.676,0.19,2.412,0.522
			c1.619-3.206,4.94-5.406,8.776-5.406c4.928,0,9.009,3.628,9.719,8.359c0.289-0.089,0.595-0.138,0.913-0.138
			c1.495,0,2.742,1.062,3.029,2.473H309.754z"/>
		<path style="fill:#DFF9FB;" d="M227.943,296.601c0.051-4.876,4.015-8.814,8.904-8.814c1.306,0,2.542,0.288,3.659,0.792
			c2.456-4.863,7.493-8.2,13.313-8.2c7.477,0,13.667,5.503,14.743,12.68c0.438-0.135,0.903-0.209,1.386-0.209
			c2.268,0,4.16,1.611,4.594,3.751H227.943z"/>
	</g>
	<g>
		<path style="opacity:0.05;fill:#130F40;" d="M707.892,468.909c0,3.195-29.307,5.785-65.46,5.785c-36.152,0-65.46-2.59-65.46-5.785
			s29.307-5.785,65.46-5.785C678.585,463.124,707.892,465.714,707.892,468.909z"/>
		<g>
			<rect x="620.681" y="190.682" style="fill:#FFFFFF;" width="28.028" height="116.485"/>
			<path style="fill:none;stroke:#7ED6DF;stroke-width:0.5;stroke-linecap:round;stroke-linejoin:round;stroke-miterlimit:10;" d="
				M620.415,191.758c0,0,2.753,7.01,12.933,7.01c12.36,0,16.317-6.988,16.317-6.988"/>
			<g>
				<path style="fill:#DFF9FB;" d="M615.671,462.17c0-1.665-1.35-3.015-3.015-3.015h-9.244c0,0-12.975-0.569-12.975,9.855h25.234
					V462.17z"/>
				<g>
					
						<line style="fill:none;stroke:#7ED6DF;stroke-width:0.5;stroke-linecap:round;stroke-linejoin:round;stroke-miterlimit:10;" x1="590.983" y1="466.546" x2="615.671" y2="466.546"/>
					
						<line style="fill:none;stroke:#7ED6DF;stroke-width:0.5;stroke-linecap:round;stroke-linejoin:round;stroke-miterlimit:10;" x1="598.518" y1="459.702" x2="603.054" y2="466.546"/>
					
						<line style="fill:none;stroke:#7ED6DF;stroke-width:0.5;stroke-linecap:round;stroke-linejoin:round;stroke-miterlimit:10;" x1="601.913" y1="459.32" x2="604.4" y2="463.124"/>
					
						<line style="fill:none;stroke:#7ED6DF;stroke-width:0.5;stroke-linecap:round;stroke-linejoin:round;stroke-miterlimit:10;" x1="605.542" y1="459.32" x2="608.029" y2="463.124"/>
				</g>
			</g>
			
				<ellipse transform="matrix(0.1597 -0.9872 0.9872 0.1597 370.4278 757.1349)" style="fill:#130F40;" cx="629.926" cy="160.993" rx="21.225" ry="21.225"/>
			<g>
				<path style="fill:#FFC2BD;" d="M620.025,163.519c0,0-5.918-5.939-7.609-2.179c-1.406,3.127,5.976,6.475,5.976,6.475
					L620.025,163.519z"/>
				
					<line style="fill:none;stroke:#FF7979;stroke-width:0.5;stroke-linecap:round;stroke-linejoin:round;stroke-miterlimit:10;" x1="614.173" y1="162.098" x2="617.618" y2="163.967"/>
			</g>
			<g>
				<polygon style="fill:#FFBE76;" points="586.399,439.067 635.672,439.067 653.661,307.168 604.389,307.168 				"/>
				<polygon style="fill:#FFBE76;" points="707.892,439.067 658.619,439.067 640.63,307.168 689.902,307.168 				"/>
				
					<line style="fill:none;stroke:#130F40;stroke-width:0.5;stroke-linecap:round;stroke-linejoin:round;stroke-miterlimit:10;" x1="647.145" y1="354.941" x2="643.628" y2="329.155"/>
				
					<line style="fill:none;stroke:#130F40;stroke-width:0.5;stroke-linecap:round;stroke-linejoin:round;stroke-miterlimit:10;" x1="688.885" y1="439.067" x2="668.166" y2="307.168"/>
				
					<line style="fill:none;stroke:#130F40;stroke-width:0.5;stroke-linecap:round;stroke-linejoin:round;stroke-miterlimit:10;" x1="610.555" y1="439.067" x2="623.188" y2="349.618"/>
				<rect x="653.661" y="428.959" style="fill:#F6E58D;" width="58.218" height="11.623"/>
				<rect x="581.446" y="428.959" style="fill:#F6E58D;" width="58.218" height="11.623"/>
				<polygon style="opacity:0.1;" points="640.63,402.714 644.082,332.481 647.145,354.941 				"/>
			</g>
			<path style="opacity:0.1;" d="M594.849,377.111h11.023c4.204,0,7.612-3.408,7.612-7.612v-8.475H596.91L594.849,377.111z"/>
			<polygon style="fill:#686DE0;" points="620.681,190.682 620.681,325.108 596.91,325.108 596.91,231.111 			"/>
			<path style="fill:#686DE0;" d="M620.681,190.682l-10.172,1.8c-11.405,2.019-20.918,9.868-25.066,20.682l-15.865,41.363h35.342
				L620.681,190.682z"/>
			<g>
				<path style="fill:#535C68;" d="M606.701,367.598H482.123c-3.746,0-6.784-3.037-6.784-6.783V144.151
					c0-3.747,3.037-6.784,6.784-6.784h124.578c3.747,0,6.784,3.037,6.784,6.784v216.663
					C613.484,364.56,610.447,367.598,606.701,367.598z"/>
				
					<line style="fill:none;stroke:#FFFFFF;stroke-width:0.5;stroke-miterlimit:10;" x1="484.72" y1="161.245" x2="484.72" y2="367.598"/>
				<g>
					<g>
						<rect x="493.734" y="170.581" style="fill:#C7ECEE;" width="3.6" height="1.658"/>
						<rect x="500.029" y="170.581" style="fill:#F9CA24;" width="13.266" height="1.658"/>
						<polygon style="fill:#E056FD;" points="529.255,172.239 542.356,172.239 542.356,170.581 529.255,170.581 529.09,170.581 
							515.99,170.581 515.99,172.239 529.09,172.239 						"/>
						<rect x="493.734" y="186.7" style="fill:#C7ECEE;" width="3.6" height="1.658"/>
						<rect x="500.029" y="186.7" style="fill:#686DE0;" width="13.266" height="1.658"/>
						<polygon style="fill:#BADC58;" points="529.09,186.7 515.99,186.7 515.99,188.359 529.09,188.359 529.255,188.359 
							542.356,188.359 542.356,186.7 529.255,186.7 						"/>
						<polygon style="fill:#F9CA24;" points="553.031,186.7 545.05,186.7 545.05,188.359 553.031,188.359 558.316,188.359 
							566.296,188.359 566.296,186.7 558.316,186.7 						"/>
						<rect x="568.991" y="186.7" style="fill:#EB4D4B;" width="13.266" height="1.658"/>
						<rect x="584.951" y="186.7" style="fill:#E056FD;" width="5.486" height="1.658"/>
						<rect x="493.734" y="174.611" style="fill:#C7ECEE;" width="3.6" height="1.658"/>
						<polygon style="fill:#E056FD;" points="513.295,176.269 525.058,176.269 525.058,174.611 513.295,174.611 511.792,174.611 
							500.029,174.611 500.029,176.269 511.792,176.269 						"/>
						<polygon style="fill:#EB4D4B;" points="541.018,176.269 553.196,176.269 553.196,174.611 541.018,174.611 539.93,174.611 
							527.753,174.611 527.753,176.269 539.93,176.269 						"/>
						<rect x="555.89" y="174.611" style="fill:#BADC58;" width="5.286" height="1.658"/>
						<rect x="563.87" y="174.611" style="fill:#BADC58;" width="5.286" height="1.658"/>
						<rect x="493.734" y="178.641" style="fill:#C7ECEE;" width="3.6" height="1.658"/>
						<rect x="500.029" y="178.641" style="fill:#EB4D4B;" width="10.447" height="1.658"/>
						<rect x="513.295" y="178.641" style="fill:#686DE0;" width="13.266" height="1.658"/>
						<polygon style="fill:#F9CA24;" points="555.786,178.641 542.521,178.641 529.255,178.641 529.255,180.299 542.521,180.299 
							555.786,180.299 						"/>
						<rect x="558.533" y="178.641" style="fill:#E056FD;" width="4.673" height="1.658"/>
						<rect x="493.734" y="166.865" style="fill:#C7ECEE;" width="3.6" height="1.658"/>
						<rect x="500.029" y="166.865" style="fill:#686DE0;" width="7.332" height="1.658"/>
						<rect x="510.056" y="166.865" style="fill:#EB4D4B;" width="4.323" height="1.658"/>
						<rect x="516.938" y="166.865" style="fill:#F9CA24;" width="9.347" height="1.658"/>
						<rect x="493.734" y="182.671" style="fill:#C7ECEE;" width="3.6" height="1.658"/>
						<polygon style="fill:#E056FD;" points="521.612,182.671 513.295,182.671 513.139,182.671 500.029,182.671 500.029,184.329 
							513.139,184.329 513.295,184.329 521.612,184.329 						"/>
						<rect x="524.331" y="182.671" style="fill:#EB4D4B;" width="4.924" height="1.658"/>
						<rect x="531.95" y="182.671" style="fill:#FFFFFF;" width="2.784" height="1.658"/>
						<rect x="537.47" y="182.671" style="fill:#686DE0;" width="13.266" height="1.658"/>
					</g>
					<g>
						<rect x="493.734" y="196.079" style="fill:#C7ECEE;" width="3.6" height="1.658"/>
						<rect x="500.029" y="196.079" style="fill:#F9CA24;" width="13.266" height="1.658"/>
						<rect x="493.734" y="212.198" style="fill:#C7ECEE;" width="3.6" height="1.658"/>
						<rect x="500.029" y="212.198" style="fill:#686DE0;" width="13.266" height="1.658"/>
						<polygon style="fill:#BADC58;" points="529.09,212.198 515.99,212.198 515.99,213.856 529.09,213.856 529.255,213.856 
							542.356,213.856 542.356,212.198 529.255,212.198 						"/>
						<rect x="544.95" y="212.198" style="fill:#EB4D4B;" width="13.266" height="1.658"/>
						<rect x="560.91" y="212.198" style="fill:#E056FD;" width="5.486" height="1.658"/>
						<rect x="493.734" y="200.109" style="fill:#C7ECEE;" width="3.6" height="1.658"/>
						<polygon style="fill:#E056FD;" points="513.295,201.767 525.058,201.767 525.058,200.109 513.295,200.109 511.792,200.109 
							500.029,200.109 500.029,201.767 511.792,201.767 						"/>
						<rect x="493.734" y="204.138" style="fill:#C7ECEE;" width="3.6" height="1.658"/>
						<rect x="500.029" y="204.138" style="fill:#EB4D4B;" width="10.447" height="1.658"/>
						<rect x="513.295" y="204.138" style="fill:#686DE0;" width="13.266" height="1.658"/>
						<polygon style="fill:#F9CA24;" points="555.786,204.138 542.521,204.138 529.255,204.138 529.255,205.797 542.521,205.797 
							555.786,205.797 						"/>
						<rect x="558.533" y="204.138" style="fill:#E056FD;" width="4.673" height="1.658"/>
						<rect x="493.734" y="192.363" style="fill:#C7ECEE;" width="3.6" height="1.658"/>
						<rect x="500.029" y="192.363" style="fill:#686DE0;" width="7.332" height="1.658"/>
						<rect x="510.056" y="192.363" style="fill:#EB4D4B;" width="4.323" height="1.658"/>
						<rect x="516.938" y="192.363" style="fill:#F9CA24;" width="9.347" height="1.658"/>
						<rect x="493.734" y="208.168" style="fill:#C7ECEE;" width="3.6" height="1.658"/>
						<polygon style="fill:#E056FD;" points="521.612,208.168 513.295,208.168 513.139,208.168 500.029,208.168 500.029,209.826 
							513.139,209.826 513.295,209.826 521.612,209.826 						"/>
						<rect x="524.331" y="208.168" style="fill:#EB4D4B;" width="4.924" height="1.658"/>
						<rect x="531.95" y="208.168" style="fill:#FFFFFF;" width="2.784" height="1.658"/>
						<rect x="537.47" y="208.168" style="fill:#686DE0;" width="13.266" height="1.658"/>
					</g>
					<g>
						<rect x="493.734" y="221.577" style="fill:#C7ECEE;" width="3.6" height="1.658"/>
						<rect x="500.029" y="221.577" style="fill:#F9CA24;" width="13.266" height="1.658"/>
						<polygon style="fill:#EB4D4B;" points="529.255,223.235 537.235,223.235 537.235,221.577 529.255,221.577 523.97,221.577 
							515.99,221.577 515.99,223.235 523.97,223.235 						"/>
						<rect x="539.93" y="221.577" style="fill:#E056FD;" width="13.266" height="1.658"/>
						<polyline style="fill:#686DE0;" points="561.376,221.577 555.89,221.577 555.89,223.235 561.376,223.235 561.376,221.577 
													"/>
						<rect x="493.734" y="237.696" style="fill:#C7ECEE;" width="3.6" height="1.658"/>
						<rect x="500.029" y="237.696" style="fill:#686DE0;" width="13.266" height="1.658"/>
						<rect x="493.734" y="225.606" style="fill:#C7ECEE;" width="3.6" height="1.658"/>
						<polygon style="fill:#E056FD;" points="513.295,227.265 525.058,227.265 525.058,225.606 513.295,225.606 511.792,225.606 
							500.029,225.606 500.029,227.265 511.792,227.265 						"/>
						<polygon style="fill:#EB4D4B;" points="541.018,227.265 553.196,227.265 553.196,225.606 541.018,225.606 539.93,225.606 
							527.753,225.606 527.753,227.265 539.93,227.265 						"/>
						<rect x="555.89" y="225.606" style="fill:#BADC58;" width="5.286" height="1.658"/>
						<rect x="563.87" y="225.606" style="fill:#BADC58;" width="5.286" height="1.658"/>
						<rect x="493.734" y="229.636" style="fill:#C7ECEE;" width="3.6" height="1.658"/>
						<rect x="500.029" y="229.636" style="fill:#EB4D4B;" width="10.447" height="1.658"/>
						<rect x="513.295" y="229.636" style="fill:#686DE0;" width="13.266" height="1.658"/>
						<polygon style="fill:#F9CA24;" points="555.786,229.636 542.521,229.636 529.255,229.636 529.255,231.294 542.521,231.294 
							555.786,231.294 						"/>
						<rect x="558.533" y="229.636" style="fill:#E056FD;" width="4.673" height="1.658"/>
						<rect x="493.734" y="217.861" style="fill:#C7ECEE;" width="3.6" height="1.658"/>
						<rect x="500.029" y="217.861" style="fill:#686DE0;" width="7.332" height="1.658"/>
						<rect x="510.056" y="217.861" style="fill:#EB4D4B;" width="4.323" height="1.658"/>
						<rect x="516.938" y="217.861" style="fill:#F9CA24;" width="9.347" height="1.658"/>
						<rect x="493.734" y="241.429" style="fill:#C7ECEE;" width="3.6" height="1.658"/>
						<rect x="500.029" y="241.429" style="fill:#686DE0;" width="7.332" height="1.658"/>
						<rect x="510.056" y="241.429" style="fill:#EB4D4B;" width="4.323" height="1.658"/>
						<rect x="493.734" y="233.666" style="fill:#C7ECEE;" width="3.6" height="1.658"/>
						<polygon style="fill:#E056FD;" points="521.612,233.666 513.295,233.666 513.139,233.666 500.029,233.666 500.029,235.324 
							513.139,235.324 513.295,235.324 521.612,235.324 						"/>
					</g>
				</g>
				<g>
					<rect x="493.734" y="251.601" style="fill:#C7ECEE;" width="3.6" height="1.658"/>
					<rect x="500.029" y="318.733" style="fill:#F9CA24;" width="13.266" height="1.658"/>
					<polygon style="fill:#E056FD;" points="529.255,318.733 542.356,318.733 542.356,320.391 529.255,320.391 529.09,320.391 
						515.99,320.391 515.99,318.733 529.09,318.733 					"/>
					<rect x="493.734" y="267.72" style="fill:#C7ECEE;" width="3.6" height="1.658"/>
					<rect x="500.029" y="302.614" style="fill:#686DE0;" width="13.266" height="1.658"/>
					<polygon style="fill:#BADC58;" points="529.09,304.272 515.99,304.272 515.99,302.614 529.09,302.614 529.255,302.614 
						542.356,302.614 542.356,304.272 529.255,304.272 					"/>
					<polygon style="fill:#F9CA24;" points="553.031,304.272 545.05,304.272 545.05,302.614 553.031,302.614 558.316,302.614 
						566.296,302.614 566.296,304.272 558.316,304.272 					"/>
					<rect x="568.991" y="302.614" style="fill:#EB4D4B;" width="13.266" height="1.658"/>
					<rect x="584.951" y="302.614" style="fill:#E056FD;" width="5.486" height="1.658"/>
					<rect x="493.734" y="255.631" style="fill:#C7ECEE;" width="3.6" height="1.658"/>
					<polygon style="fill:#E056FD;" points="513.295,314.703 525.058,314.703 525.058,316.361 513.295,316.361 511.792,316.361 
						500.029,316.361 500.029,314.703 511.792,314.703 					"/>
					<polygon style="fill:#EB4D4B;" points="541.018,314.703 553.196,314.703 553.196,316.361 541.018,316.361 539.93,316.361 
						527.753,316.361 527.753,314.703 539.93,314.703 					"/>
					<rect x="555.89" y="314.703" style="fill:#BADC58;" width="5.286" height="1.658"/>
					<rect x="563.87" y="314.703" style="fill:#BADC58;" width="5.286" height="1.658"/>
					<rect x="493.734" y="259.661" style="fill:#C7ECEE;" width="3.6" height="1.658"/>
					<rect x="500.029" y="310.673" style="fill:#EB4D4B;" width="10.447" height="1.658"/>
					<rect x="513.295" y="310.673" style="fill:#686DE0;" width="13.266" height="1.658"/>
					<polygon style="fill:#F9CA24;" points="555.786,312.332 542.521,312.332 529.255,312.332 529.255,310.673 542.521,310.673 
						555.786,310.673 					"/>
					<rect x="558.533" y="310.673" style="fill:#E056FD;" width="4.673" height="1.658"/>
					<rect x="493.734" y="247.886" style="fill:#C7ECEE;" width="3.6" height="1.658"/>
					<rect x="500.029" y="322.449" style="fill:#686DE0;" width="7.332" height="1.658"/>
					<rect x="510.056" y="322.449" style="fill:#EB4D4B;" width="4.323" height="1.658"/>
					<rect x="516.938" y="322.449" style="fill:#F9CA24;" width="9.347" height="1.658"/>
					<rect x="493.734" y="263.691" style="fill:#C7ECEE;" width="3.6" height="1.658"/>
					<polygon style="fill:#E056FD;" points="521.612,308.302 513.295,308.302 513.139,308.302 500.029,308.302 500.029,306.644 
						513.139,306.644 513.295,306.644 521.612,306.644 					"/>
					<rect x="524.331" y="306.644" style="fill:#EB4D4B;" width="4.924" height="1.658"/>
					<rect x="531.95" y="306.644" style="fill:#FFFFFF;" width="2.784" height="1.658"/>
					<rect x="537.47" y="306.644" style="fill:#686DE0;" width="13.266" height="1.658"/>
					<rect x="493.734" y="277.099" style="fill:#C7ECEE;" width="3.6" height="1.658"/>
					<rect x="500.029" y="293.235" style="fill:#F9CA24;" width="13.266" height="1.658"/>
					<rect x="493.734" y="293.218" style="fill:#C7ECEE;" width="3.6" height="1.658"/>
					<rect x="500.029" y="277.116" style="fill:#686DE0;" width="13.266" height="1.658"/>
					<polygon style="fill:#BADC58;" points="529.09,278.775 515.99,278.775 515.99,277.116 529.09,277.116 529.255,277.116 
						542.356,277.116 542.356,278.775 529.255,278.775 					"/>
					<rect x="544.95" y="277.116" style="fill:#EB4D4B;" width="13.266" height="1.658"/>
					<rect x="560.91" y="277.116" style="fill:#E056FD;" width="5.486" height="1.658"/>
					<rect x="493.734" y="281.129" style="fill:#C7ECEE;" width="3.6" height="1.658"/>
					<polygon style="fill:#E056FD;" points="513.295,289.205 525.058,289.205 525.058,290.864 513.295,290.864 511.792,290.864 
						500.029,290.864 500.029,289.205 511.792,289.205 					"/>
					<rect x="493.734" y="285.158" style="fill:#C7ECEE;" width="3.6" height="1.658"/>
					<rect x="500.029" y="285.176" style="fill:#EB4D4B;" width="10.447" height="1.658"/>
					<rect x="513.295" y="285.176" style="fill:#686DE0;" width="13.266" height="1.658"/>
					<polygon style="fill:#F9CA24;" points="555.786,286.834 542.521,286.834 529.255,286.834 529.255,285.176 542.521,285.176 
						555.786,285.176 					"/>
					<rect x="558.533" y="285.176" style="fill:#E056FD;" width="4.673" height="1.658"/>
					<rect x="493.734" y="273.383" style="fill:#C7ECEE;" width="3.6" height="1.658"/>
					<rect x="500.029" y="296.951" style="fill:#686DE0;" width="7.332" height="1.658"/>
					<rect x="510.056" y="296.951" style="fill:#EB4D4B;" width="4.323" height="1.658"/>
					<rect x="516.938" y="296.951" style="fill:#F9CA24;" width="9.347" height="1.658"/>
					<rect x="493.734" y="289.188" style="fill:#C7ECEE;" width="3.6" height="1.658"/>
					<polygon style="fill:#E056FD;" points="521.612,282.804 513.295,282.804 513.139,282.804 500.029,282.804 500.029,281.146 
						513.139,281.146 513.295,281.146 521.612,281.146 					"/>
					<rect x="524.331" y="281.146" style="fill:#EB4D4B;" width="4.924" height="1.658"/>
					<rect x="531.95" y="281.146" style="fill:#FFFFFF;" width="2.784" height="1.658"/>
					<rect x="537.47" y="281.146" style="fill:#686DE0;" width="13.266" height="1.658"/>
					<rect x="493.734" y="302.597" style="fill:#C7ECEE;" width="3.6" height="1.658"/>
					<rect x="500.029" y="267.738" style="fill:#F9CA24;" width="13.266" height="1.658"/>
					<polygon style="fill:#EB4D4B;" points="529.255,267.738 537.235,267.738 537.235,269.396 529.255,269.396 523.97,269.396 
						515.99,269.396 515.99,267.738 523.97,267.738 					"/>
					<rect x="539.93" y="267.738" style="fill:#E056FD;" width="13.266" height="1.658"/>
					<polyline style="fill:#686DE0;" points="561.376,269.396 555.89,269.396 555.89,267.738 561.376,267.738 561.376,269.396 					
						"/>
					<rect x="493.734" y="318.716" style="fill:#C7ECEE;" width="3.6" height="1.658"/>
					<rect x="500.029" y="251.619" style="fill:#686DE0;" width="13.266" height="1.658"/>
					<rect x="493.734" y="306.626" style="fill:#C7ECEE;" width="3.6" height="1.658"/>
					<polygon style="fill:#E056FD;" points="513.295,263.708 525.058,263.708 525.058,265.366 513.295,265.366 511.792,265.366 
						500.029,265.366 500.029,263.708 511.792,263.708 					"/>
					<polygon style="fill:#EB4D4B;" points="541.018,263.708 553.196,263.708 553.196,265.366 541.018,265.366 539.93,265.366 
						527.753,265.366 527.753,263.708 539.93,263.708 					"/>
					<rect x="555.89" y="263.708" style="fill:#BADC58;" width="5.286" height="1.658"/>
					<rect x="563.87" y="263.708" style="fill:#BADC58;" width="5.286" height="1.658"/>
					<rect x="493.734" y="310.656" style="fill:#C7ECEE;" width="3.6" height="1.658"/>
					<rect x="500.029" y="259.678" style="fill:#EB4D4B;" width="10.447" height="1.658"/>
					<rect x="513.295" y="259.678" style="fill:#686DE0;" width="13.266" height="1.658"/>
					<polygon style="fill:#F9CA24;" points="555.786,261.336 542.521,261.336 529.255,261.336 529.255,259.678 542.521,259.678 
						555.786,259.678 					"/>
					<rect x="558.533" y="259.678" style="fill:#E056FD;" width="4.673" height="1.658"/>
					<rect x="493.734" y="298.881" style="fill:#C7ECEE;" width="3.6" height="1.658"/>
					<rect x="500.029" y="271.453" style="fill:#686DE0;" width="7.332" height="1.658"/>
					<rect x="510.056" y="271.453" style="fill:#EB4D4B;" width="4.323" height="1.658"/>
					<rect x="516.938" y="271.453" style="fill:#F9CA24;" width="9.347" height="1.658"/>
					<rect x="493.734" y="322.449" style="fill:#C7ECEE;" width="3.6" height="1.658"/>
					<rect x="500.029" y="247.886" style="fill:#686DE0;" width="7.332" height="1.658"/>
					<rect x="510.056" y="247.886" style="fill:#EB4D4B;" width="4.323" height="1.658"/>
					<rect x="493.734" y="314.686" style="fill:#C7ECEE;" width="3.6" height="1.658"/>
					<polygon style="fill:#E056FD;" points="521.612,257.307 513.295,257.307 513.139,257.307 500.029,257.307 500.029,255.648 
						513.139,255.648 513.295,255.648 521.612,255.648 					"/>
					<rect x="524.331" y="255.648" style="fill:#EB4D4B;" width="4.924" height="1.658"/>
				</g>
				<g>
					<defs>
						<path id="SVGID_00000094618905593606517370000001593539874196541872_" d="M606.701,367.598H482.123
							c-3.746,0-6.784-3.037-6.784-6.783V144.151c0-3.747,3.037-6.784,6.784-6.784h124.578c3.747,0,6.784,3.037,6.784,6.784v216.663
							C613.484,364.56,610.447,367.598,606.701,367.598z"/>
					</defs>
					<clipPath id="SVGID_00000156546266576577041120000012993970757985652116_">
						<use xlink:href="#SVGID_00000094618905593606517370000001593539874196541872_"  style="overflow:visible;"/>
					</clipPath>
					
						<rect x="463.116" y="137.367" style="clip-path:url(#SVGID_00000156546266576577041120000012993970757985652116_);fill:#686DE0;" width="158.051" height="23.878"/>
					
						<rect x="453.893" y="329.155" style="clip-path:url(#SVGID_00000156546266576577041120000012993970757985652116_);fill:#F6E58D;" width="165.412" height="47.957"/>
				</g>
				<g>
					<rect x="486.994" y="340.314" style="fill:#FFFFFF;" width="34.617" height="2.939"/>
					<rect x="486.994" y="345.963" style="fill:#FFFFFF;" width="18.932" height="2.939"/>
					<rect x="486.994" y="351.612" style="fill:#FFFFFF;" width="11.043" height="2.939"/>
				</g>
				<g>
					<rect x="542.356" y="340.314" style="fill:#FFFFFF;" width="34.617" height="2.939"/>
					<rect x="542.356" y="345.963" style="fill:#FFFFFF;" width="18.932" height="2.939"/>
					<rect x="542.356" y="351.612" style="fill:#FFFFFF;" width="11.043" height="2.939"/>
				</g>
				<g>
					<path style="fill:#EB4D4B;" d="M490.5,148.406c0,1.596-1.294,2.89-2.89,2.89s-2.89-1.294-2.89-2.89
						c0-1.596,1.294-2.89,2.89-2.89S490.5,146.81,490.5,148.406z"/>
					<path style="fill:#F9CA24;" d="M502.919,148.406c0,1.596-1.294,2.89-2.89,2.89c-1.596,0-2.89-1.294-2.89-2.89
						c0-1.596,1.294-2.89,2.89-2.89C501.625,145.516,502.919,146.81,502.919,148.406z"/>
					<path style="fill:#F9CA24;" d="M515.338,148.406c0,1.596-1.294,2.89-2.89,2.89c-1.596,0-2.89-1.294-2.89-2.89
						c0-1.596,1.294-2.89,2.89-2.89C514.044,145.516,515.338,146.81,515.338,148.406z"/>
				</g>
			</g>
			<polygon style="fill:#686DE0;" points="648.709,190.682 648.709,325.108 700.256,325.108 671.703,200.284 			"/>
			<g style="opacity:0.1;">
				<polygon points="620.681,235.912 625.526,284.427 620.681,315.506 				"/>
				<path d="M613.208,276.657c0,0,10.17,0.948,13.771-3.411c0,0,18.635,12.887,39.292,13.266
					c20.657,0.379,23.374-7.794,23.374-7.794l-1.541-6.738l-61.124-2.966l-13.771,1.79V276.657z"/>
			</g>
			<path style="fill:#686DE0;" d="M648.709,190.682l10.172,1.8c11.405,2.019,20.918,9.868,25.066,20.682l15.865,41.363H664.47
				L648.709,190.682z"/>
			
				<line style="fill:none;stroke:#130F40;stroke-width:0.5;stroke-linecap:round;stroke-linejoin:round;stroke-miterlimit:10;" x1="664.47" y1="254.528" x2="657.052" y2="224.478"/>
			<g>
				<path style="fill:#FFC2BD;" d="M664.47,254.528h-37.492v14.485c0,0,15.414,9.855,41.44,10.865
					c26.026,1.011,25.268-25.351,25.268-25.351H664.47z"/>
				<path style="fill:#FFC2BD;" d="M626.979,254.528c0,0-1.263-5.603-10.233-5.603c-8.97,0-13.645,1.39-13.392,3.538
					c0.253,2.148,5.433,2.065,5.433,2.065s-6.191-0.17-6.57,2.483c-0.379,2.653,6.443,2.779,6.443,2.779s-4.674,0.505-4.548,2.78
					c0.127,2.274,4.422,2.148,4.422,2.148s-2.906,0.731-2.906,2.5c0,1.769,15.413,7.734,21.351,1.796V254.528z"/>
				
					<line style="fill:none;stroke:#FF7979;stroke-width:0.5;stroke-linecap:round;stroke-linejoin:round;stroke-miterlimit:10;" x1="608.786" y1="254.528" x2="620.03" y2="254.105"/>
				
					<line style="fill:none;stroke:#FF7979;stroke-width:0.5;stroke-linecap:round;stroke-linejoin:round;stroke-miterlimit:10;" x1="608.659" y1="259.79" x2="620.03" y2="260.043"/>
				
					<line style="fill:none;stroke:#FF7979;stroke-width:0.5;stroke-linecap:round;stroke-linejoin:round;stroke-miterlimit:10;" x1="608.533" y1="264.717" x2="620.03" y2="265.665"/>
				<path style="fill:#FFC2BD;" d="M620.681,249.358c0,0-1.156-12.119-4.883-12.308c-3.727-0.19-1.832,13.455-1.832,13.455
					L620.681,249.358z"/>
				
					<line style="fill:none;stroke:#FF7979;stroke-width:0.5;stroke-linecap:round;stroke-linejoin:round;stroke-miterlimit:10;" x1="613.484" y1="248.994" x2="618.704" y2="248.925"/>
			</g>
			<polygon style="opacity:0.1;" points="655.532,325.108 693.688,334.929 692.349,325.108 			"/>
			<path style="opacity:0.1;" d="M668.166,254.316l22.808,12.901c0,0,2.965-4.686,2.712-12.69L668.166,254.316z"/>
			<polygon style="fill:#FFC2BD;" points="605.248,440.583 603.732,459.155 613.484,459.155 620.03,440.583 			"/>
			<polygon style="fill:#FFC2BD;" points="674.625,440.583 679.839,459.155 689.591,459.155 689.406,440.583 			"/>
			<polygon style="opacity:0.1;" points="604.846,445.508 618.294,445.508 620.03,440.583 605.248,440.583 			"/>
			<polygon style="opacity:0.1;" points="676.008,445.508 689.591,445.508 689.406,440.583 674.625,440.583 			"/>
			<path style="fill:#FFC2BD;" d="M637.992,167.815l9.371,22.867c0,0-3.215,5.527-12.668,5.527c-9.453,0-11.968-5.527-11.968-5.527
				l2.306-11.908L637.992,167.815z"/>
			<path style="opacity:0.1;" d="M624.322,182.443c0,0,2.643,1.092,7.042-0.92c6.628-3.032,6.628-13.708,6.628-13.708l-12.96,10.959
				L624.322,182.443z"/>
			<circle style="fill:#FFC2BD;" cx="626.875" cy="167.815" r="11.118"/>
			<g>
				<path style="fill:#FFC2BD;" d="M633.349,163.519c0,0,7.792-5.875,10.256-2.179c2.464,3.695-8.054,6.475-8.054,6.475
					L633.349,163.519z"/>
				
					<line style="fill:none;stroke:#FF7979;stroke-width:0.5;stroke-linecap:round;stroke-linejoin:round;stroke-miterlimit:10;" x1="641.236" y1="162.098" x2="636.593" y2="163.967"/>
			</g>
			<path style="fill:none;stroke:#FFFFFF;stroke-miterlimit:10;" d="M622.195,167.057c0,3.349-2.715,6.064-6.064,6.064
				s-6.064-2.715-6.064-6.064s2.715-6.064,6.064-6.064S622.195,163.708,622.195,167.057z"/>
			<path style="fill:none;stroke:#FFFFFF;stroke-miterlimit:10;" d="M635.99,167.057c0,3.349-2.715,6.064-6.064,6.064
				c-3.349,0-6.064-2.715-6.064-6.064s2.715-6.064,6.064-6.064C633.275,160.992,635.99,163.708,635.99,167.057z"/>
			<path style="fill:#FFFFFF;" d="M623.043,174.258l3.285-0.505C626.328,173.753,625.38,176.469,623.043,174.258z"/>
			<path style="fill:none;stroke:#FF7979;stroke-width:0.5;stroke-linecap:round;stroke-linejoin:round;stroke-miterlimit:10;" d="
				M627.496,168.115c0,0,1.848-1.042,3.98,0"/>
			<path style="fill:none;stroke:#FF7979;stroke-width:0.5;stroke-linecap:round;stroke-linejoin:round;stroke-miterlimit:10;" d="
				M616.893,168.115c0,0,1.848-1.042,3.98,0"/>
			<g>
				<path style="fill:#DFF9FB;" d="M691.778,462.17c0-1.665-1.35-3.015-3.015-3.015h-9.244c0,0-12.975-0.569-12.975,9.855h25.234
					V462.17z"/>
				<g>
					
						<line style="fill:none;stroke:#7ED6DF;stroke-width:0.5;stroke-linecap:round;stroke-linejoin:round;stroke-miterlimit:10;" x1="667.09" y1="466.546" x2="691.778" y2="466.546"/>
					
						<line style="fill:none;stroke:#7ED6DF;stroke-width:0.5;stroke-linecap:round;stroke-linejoin:round;stroke-miterlimit:10;" x1="674.625" y1="459.702" x2="679.161" y2="466.546"/>
					
						<line style="fill:none;stroke:#7ED6DF;stroke-width:0.5;stroke-linecap:round;stroke-linejoin:round;stroke-miterlimit:10;" x1="678.02" y1="459.32" x2="680.508" y2="463.124"/>
					
						<line style="fill:none;stroke:#7ED6DF;stroke-width:0.5;stroke-linecap:round;stroke-linejoin:round;stroke-miterlimit:10;" x1="681.649" y1="459.32" x2="684.136" y2="463.124"/>
				</g>
			</g>
			<polygon style="opacity:0.1;" points="658.122,254.528 658.122,230.985 664.47,254.528 			"/>
		</g>
	</g>
	<g>
		<path style="opacity:0.05;fill:#130F40;" d="M225.51,465.215c0,3.195-37.458,5.785-83.664,5.785s-83.663-2.59-83.663-5.785
			s37.457-5.785,83.663-5.785S225.51,462.02,225.51,465.215z"/>
		<g>
			<g>
				<g>
					
						<line style="fill:none;stroke:#130F40;stroke-width:0.75;stroke-linecap:round;stroke-linejoin:round;stroke-miterlimit:10;" x1="100.846" y1="366.914" x2="100.846" y2="441.362"/>
					<path style="fill:#FFBE76;" d="M100.846,384.462L100.846,384.462c2.799,0,5.067,2.269,5.067,5.067v70.621
						c0,2.798-2.269,5.067-5.067,5.067l0,0c-2.799,0-5.067-2.269-5.067-5.067v-70.621
						C95.779,386.731,98.047,384.462,100.846,384.462z"/>
				</g>
				
					<line style="fill:none;stroke:#130F40;stroke-width:0.75;stroke-linecap:round;stroke-linejoin:round;stroke-miterlimit:10;" x1="74.056" y1="417.209" x2="129.844" y2="417.209"/>
				<g>
					
						<line style="fill:none;stroke:#130F40;stroke-width:0.75;stroke-linecap:round;stroke-linejoin:round;stroke-miterlimit:10;" x1="85.119" y1="361.354" x2="69.118" y2="441.82"/>
					<path style="fill:#FFBE76;" d="M80.215,386.013L80.215,386.013c2.745,0.546,4.527,3.213,3.981,5.958l-13.773,69.264
						c-0.546,2.745-3.213,4.527-5.958,3.982l0,0c-2.745-0.546-4.527-3.213-3.982-5.958l13.773-69.264
						C74.803,387.25,77.47,385.467,80.215,386.013z"/>
				</g>
				<g>
					
						<line style="fill:none;stroke:#130F40;stroke-width:0.75;stroke-linecap:round;stroke-linejoin:round;stroke-miterlimit:10;" x1="117.478" y1="361.354" x2="133.479" y2="441.82"/>
					<path style="fill:#FFBE76;" d="M122.381,386.013L122.381,386.013c-2.745,0.546-4.527,3.213-3.981,5.958l13.773,69.264
						c0.546,2.745,3.213,4.527,5.958,3.982l0,0c2.745-0.546,4.527-3.213,3.982-5.958l-13.773-69.264
						C127.794,387.25,125.126,385.467,122.381,386.013z"/>
				</g>
			</g>
			<path style="fill:#F6E58D;" d="M45.971,271.694h58.118v78.086c0,0-33.354,6.762-49.731-6.064
				C37.981,330.889,45.971,271.694,45.971,271.694z"/>
			<path style="fill:#FFBE76;" d="M45.971,271.694L38.92,312.21c-6.206,35.662,24.648,66.868,60.354,60.918
				c12.773-2.129,23.414-4.981,27.813-8.789l-44.133-7.933c-19.225-5.409-32.947-22.357-34.237-42.287L45.971,271.694z"/>
			<polygon style="fill:#FFFFFF;" points="97.303,236.919 94.718,243.226 94.822,333.443 119.886,334.157 119.355,243.226 
				116.717,236.919 			"/>
			<path style="fill:none;stroke:#7ED6DF;stroke-width:0.5;stroke-linecap:round;stroke-linejoin:round;stroke-miterlimit:10;" d="
				M88.387,242.072c0,0,4.594,11.371,17.754,11.371c13.16,0,19.398-8.086,19.398-8.086"/>
			<path style="fill:#F0932B;" d="M119.302,243.226v94.281h32.275l1.453-65.034c0,0-6.294-16.189-14.548-25.699
				c-5.463-6.294-13.43-9.855-21.764-9.855l0,0L119.302,243.226z"/>
			<g>
				<path style="fill:#4834D4;" d="M127.418,333.443h62.086c9.833,0,18.004,7.578,18.744,17.382l5.543,73.412h-43.013
					l-11.095-59.898h-36.146L127.418,333.443z"/>
				<path style="fill:none;stroke:#130F40;stroke-width:0.5;stroke-linecap:round;stroke-linejoin:round;stroke-miterlimit:10;" d="
					M193.167,424.237l-5.946-71.901c-0.357-4.323-3.97-7.649-8.308-7.649h-33.879"/>
				<polygon style="fill:#7ED6DF;" points="168.664,436.858 219,436.858 217.654,424.237 167.318,424.237 				"/>
				<polygon style="opacity:0.1;" points="195.039,334.157 174.839,360.227 166.441,400.822 159.032,334.157 				"/>
				<path style="fill:#686DE0;" d="M94.822,333.443h64.991c7.734,0,13.736,6.747,12.835,14.428l-8.953,76.366h-43.013l6.404-59.898
					H90.941L94.822,333.443z"/>
				<path style="fill:none;stroke:#130F40;stroke-width:0.5;stroke-linecap:round;stroke-linejoin:round;stroke-miterlimit:10;" d="
					M144.576,424.237l10.182-68.27c0.886-5.941-3.716-11.281-9.723-11.281H94.718"/>
				<polygon style="fill:#7ED6DF;" points="165.707,436.858 115.371,436.858 116.717,424.237 167.053,424.237 				"/>
				<polygon style="opacity:0.1;" points="94.822,333.443 130.392,356.942 135.646,349.867 134.079,358.205 139.117,364.339 
					131.84,363.259 134.079,369.828 124.422,389.266 127.087,364.339 94.718,364.339 				"/>
			</g>
			
				<line style="fill:none;stroke:#130F40;stroke-width:0.5;stroke-linecap:round;stroke-linejoin:round;stroke-miterlimit:10;" x1="134.079" y1="269.007" x2="139.117" y2="308.68"/>
			<path style="fill:#F0932B;" d="M94.718,243.226v143.785H62.444V269.002c0,0,4.841-12.718,13.095-22.228
				c5.463-6.294,13.43-9.855,21.764-9.855l0,0L94.718,243.226z"/>
			<path style="opacity:0.1;" d="M62.444,315.564v7.606c0,0,2.274,8.504,13.139,11.789c7.808,2.361,19.135,1.516,19.135,1.516
				v-13.139L62.444,315.564z"/>
			<path style="fill:#F0932B;" d="M86.111,239.158L86.111,239.158c-20.532,9.084-33.775,29.424-33.775,51.876v0
				c0,19.235,15.593,34.828,34.828,34.828h32.722v-36.828l-35.457,1.512L86.111,239.158z"/>
			<g>
				
					<line style="fill:none;stroke:#130F40;stroke-width:0.5;stroke-linecap:round;stroke-linejoin:round;stroke-miterlimit:10;" x1="94.718" y1="325.862" x2="87.165" y2="325.862"/>
				
					<line style="fill:none;stroke:#130F40;stroke-width:0.5;stroke-linecap:round;stroke-linejoin:round;stroke-miterlimit:10;" x1="94.718" y1="290.107" x2="79.121" y2="290.107"/>
				
					<line style="fill:none;stroke:#130F40;stroke-width:0.5;stroke-linecap:round;stroke-linejoin:round;stroke-miterlimit:10;" x1="86.745" y1="290.107" x2="88.387" y2="269.002"/>
				
					<line style="fill:none;stroke:#130F40;stroke-width:0.5;stroke-linecap:round;stroke-linejoin:round;stroke-miterlimit:10;" x1="112.156" y1="289.363" x2="112.156" y2="325.862"/>
			</g>
			<path style="fill:#FFC2BD;" d="M119.886,290.107l9.391-0.743l11.371-2.667c0,0,2.906,6.57-1.642,10.36
				c-4.548,3.79-9.097,2.811-9.097,2.811l-10.687,5.872L119.886,290.107z"/>
			<path style="fill:#FFC2BD;" d="M135.646,299.102c0,0,5.089,8.917,8.027,8.511c2.939-0.406-4.557-8.219-4.557-8.219
				s7.848,6.822,9.743,4.548c1.895-2.274-7.298-7.58-7.298-7.58s7.52,7.077,9.794,4.613c2.274-2.464-6.784-8.13-6.784-8.13
				s6.423,5.697,8.697,3.043c2.274-2.653-12.621-9.191-12.621-9.191L135.646,299.102z"/>
			<g>
				<g>
					<path style="fill:#FFC2BD;" d="M122.057,216.063c0,0,5.918-5.939,7.609-2.179c1.406,3.127-5.976,6.475-5.976,6.475
						L122.057,216.063z"/>
					
						<line style="fill:none;stroke:#FF7979;stroke-width:0.5;stroke-linecap:round;stroke-linejoin:round;stroke-miterlimit:10;" x1="127.909" y1="214.642" x2="124.464" y2="216.511"/>
				</g>
				<path style="fill:#FFC2BD;" d="M104.089,220.359l-9.371,22.868c0,0,3.215,5.527,12.668,5.527c9.453,0,11.968-5.527,11.968-5.527
					l-2.306-11.908L104.089,220.359z"/>
				<path style="opacity:0.1;" d="M117.907,235.819c0,0-5.312,1.871-9.174-0.568c-6.162-3.892-4.644-14.892-4.644-14.892
					l12.96,10.959L117.907,235.819z"/>
				
					<ellipse transform="matrix(0.9966 -0.0825 0.0825 0.9966 -17.7826 10.253)" style="fill:#FFC2BD;" cx="115.207" cy="220.359" rx="11.118" ry="11.118"/>
				<g>
					<path style="fill:#FFC2BD;" d="M108.733,216.063c0,0-7.792-5.875-10.256-2.179c-2.464,3.696,8.054,6.475,8.054,6.475
						L108.733,216.063z"/>
					
						<line style="fill:none;stroke:#FF7979;stroke-width:0.5;stroke-linecap:round;stroke-linejoin:round;stroke-miterlimit:10;" x1="100.846" y1="214.642" x2="105.489" y2="216.511"/>
				</g>
				<path style="fill:#FFFFFF;" d="M119.039,226.802l-3.285-0.505C115.754,226.297,116.702,229.013,119.039,226.802z"/>
				<path style="fill:none;stroke:#FF7979;stroke-width:0.5;stroke-linecap:round;stroke-linejoin:round;stroke-miterlimit:10;" d="
					M114.585,220.659c0,0-1.848-1.042-3.98,0"/>
				<path style="fill:none;stroke:#FF7979;stroke-width:0.5;stroke-linecap:round;stroke-linejoin:round;stroke-miterlimit:10;" d="
					M125.189,220.659c0,0-1.848-1.042-3.98,0"/>
				
					<line style="fill:none;stroke:#130F40;stroke-width:0.5;stroke-linecap:round;stroke-linejoin:round;stroke-miterlimit:10;" x1="110.137" y1="213.925" x2="107.185" y2="212.663"/>
				
					<line style="fill:none;stroke:#130F40;stroke-width:0.5;stroke-linecap:round;stroke-linejoin:round;stroke-miterlimit:10;" x1="108.733" y1="214.752" x2="106.142" y2="213.925"/>
				<path style="fill:#130F40;" d="M134.411,192.785c-2.401-4.359-19.121-8.295-23.29-6.021c-3.767,2.055-3.501,20.727-3.414,24.314
					c0.009,0.356,0.257,0.65,0.604,0.731l16.778,3.897c0.327,0.076,0.66-0.057,0.836-0.343
					C127.695,212.487,136.852,197.217,134.411,192.785z"/>
			</g>
			<polygon style="opacity:0.1;" points="94.718,325.862 94.797,331.619 113.801,333.316 119.886,325.862 123.537,309.817 
				129.909,299.868 119.222,305.739 119.886,325.862 			"/>
			<g>
				<path style="fill:#22A6B3;" d="M205.284,330.59h-65.871c-2.354,0-4.131-2.137-3.702-4.452l9.374-50.585
					c0.331-1.785,1.887-3.079,3.702-3.079h65.871c2.355,0,4.131,2.136,3.702,4.452l-9.374,50.585
					C208.655,329.295,207.099,330.59,205.284,330.59z"/>
				<path style="fill:#7ED6DF;" d="M207.976,330.59h-65.871c-2.354,0-4.131-2.137-3.702-4.452l9.374-50.585
					c0.331-1.785,1.887-3.079,3.702-3.079h65.871c2.355,0,4.132,2.136,3.702,4.452l-9.374,50.585
					C211.348,329.295,209.791,330.59,207.976,330.59z"/>
				<path style="fill:#7ED6DF;" d="M208.894,334.157h-73.567v-3.568h73.567c0.985,0,1.784,0.799,1.784,1.784l0,0
					C210.678,333.358,209.879,334.157,208.894,334.157z"/>
				<path style="fill:#22A6B3;" d="M137.333,334.157h-31.46c-0.985,0-1.784-0.799-1.784-1.784l0,0c0-0.985,0.799-1.784,1.784-1.784
					h31.46c0.985,0,1.784,0.799,1.784,1.784l0,0C139.117,333.358,138.318,334.157,137.333,334.157z"/>
				<g>
					<defs>
						<path id="SVGID_00000129914584445816286760000010344529542494744479_" d="M208.894,334.157h-73.567v-3.568h73.567
							c0.985,0,1.784,0.799,1.784,1.784l0,0C210.678,333.358,209.879,334.157,208.894,334.157z"/>
					</defs>
					<clipPath id="SVGID_00000136402308042385897430000010530876734225960070_">
						<use xlink:href="#SVGID_00000129914584445816286760000010344529542494744479_"  style="overflow:visible;"/>
					</clipPath>
					
						<rect x="159.032" y="329.482" style="clip-path:url(#SVGID_00000136402308042385897430000010530876734225960070_);fill:#130F40;" width="36.007" height="4.675"/>
				</g>
				<polygon style="fill:#FFFFFF;" points="179.008,291.075 174.839,300.172 181.662,300.172 179.008,307.752 186.589,297.139 
					180.714,297.139 184.062,291.075 				"/>
			</g>
			<g>
				<path style="fill:#F0932B;" d="M200.276,458.378c0-1.665,1.35-3.015,3.015-3.015h9.244c0,0,12.975-0.568,12.975,9.855h-25.234
					V458.378z"/>
				<g>
					
						<line style="fill:none;stroke:#130F40;stroke-width:0.5;stroke-linecap:round;stroke-linejoin:round;stroke-miterlimit:10;" x1="224.964" y1="462.753" x2="200.276" y2="462.753"/>
					
						<line style="fill:none;stroke:#130F40;stroke-width:0.5;stroke-linecap:round;stroke-linejoin:round;stroke-miterlimit:10;" x1="217.43" y1="455.91" x2="212.893" y2="462.753"/>
					
						<line style="fill:none;stroke:#130F40;stroke-width:0.5;stroke-linecap:round;stroke-linejoin:round;stroke-miterlimit:10;" x1="214.034" y1="455.528" x2="211.547" y2="459.332"/>
					
						<line style="fill:none;stroke:#130F40;stroke-width:0.5;stroke-linecap:round;stroke-linejoin:round;stroke-miterlimit:10;" x1="210.406" y1="455.528" x2="207.918" y2="459.332"/>
				</g>
			</g>
			<polygon style="fill:#FFC2BD;" points="210.699,436.79 212.215,455.362 202.463,455.362 195.917,436.79 			"/>
			<polygon style="fill:#FFC2BD;" points="141.322,436.79 136.108,455.362 126.356,455.362 126.541,436.79 			"/>
			<g>
				<path style="fill:#F0932B;" d="M124.169,458.378c0-1.665,1.35-3.015,3.015-3.015h9.244c0,0,12.975-0.568,12.975,9.855h-25.234
					V458.378z"/>
				<g>
					
						<line style="fill:none;stroke:#130F40;stroke-width:0.5;stroke-linecap:round;stroke-linejoin:round;stroke-miterlimit:10;" x1="148.857" y1="462.753" x2="124.169" y2="462.753"/>
					
						<line style="fill:none;stroke:#130F40;stroke-width:0.5;stroke-linecap:round;stroke-linejoin:round;stroke-miterlimit:10;" x1="141.322" y1="455.91" x2="136.786" y2="462.753"/>
					
						<line style="fill:none;stroke:#130F40;stroke-width:0.5;stroke-linecap:round;stroke-linejoin:round;stroke-miterlimit:10;" x1="137.927" y1="455.528" x2="135.44" y2="459.332"/>
					
						<line style="fill:none;stroke:#130F40;stroke-width:0.5;stroke-linecap:round;stroke-linejoin:round;stroke-miterlimit:10;" x1="134.298" y1="455.528" x2="131.811" y2="459.332"/>
				</g>
			</g>
		</g>
	</g>
	<g>
		<ellipse style="opacity:0.05;fill:#130F40;" cx="388.684" cy="458.218" rx="65.46" ry="9.015"/>
		<g>
			<path style="fill:#686DE0;" d="M395.876,311.231h-14.383c-19.084,0-34.554,15.47-34.554,34.554v48.937h83.491v-48.937
				C430.43,326.701,414.96,311.231,395.876,311.231z"/>
			<g>
				<path style="fill:#130F40;" d="M377.192,269.764c0,0,1.584-8.806,15.497-7.739c20.397,1.564,23.376,43.442,23.376,43.442
					h-54.989C361.075,305.466,361.075,266.876,377.192,269.764z"/>
				<path style="fill:#FFC2BD;" d="M395.248,292.812l6.702,18.626c0,0-2.259,6.683-13.689,6.683
					c-11.429,0-12.842-6.683-12.842-6.683l6.558-18.626H395.248z"/>
				<g>
					<g>
						<path style="fill:#FFC2BD;" d="M396.387,287.143c0,0,9.421-7.103,12.399-2.635c2.978,4.468-9.738,7.828-9.738,7.828
							L396.387,287.143z"/>
						
							<line style="fill:none;stroke:#FF7979;stroke-width:0.5;stroke-linecap:round;stroke-linejoin:round;stroke-miterlimit:10;" x1="405.922" y1="285.425" x2="400.309" y2="287.685"/>
					</g>
					<g>
						<path style="fill:#FFC2BD;" d="M381.113,287.143c0,0-9.421-7.103-12.4-2.635c-2.978,4.468,9.738,7.828,9.738,7.828
							L381.113,287.143z"/>
						
							<line style="fill:none;stroke:#FF7979;stroke-width:0.5;stroke-linecap:round;stroke-linejoin:round;stroke-miterlimit:10;" x1="371.578" y1="285.425" x2="377.192" y2="287.685"/>
					</g>
				</g>
				<path style="opacity:0.1;" d="M379.839,298.883l-0.742,2.108c0,0,1.885,5.729,9.587,5.729c7.702,0,9.507-5.729,9.507-5.729
					l-0.691-2.108H379.839z"/>
				
					<ellipse transform="matrix(0.1242 -0.9923 0.9923 0.1242 52.7873 639.5309)" style="fill:#FFC2BD;" cx="388.684" cy="289.862" rx="13.442" ry="13.442"/>
				<path style="fill:#130F40;" d="M400.961,284.39c0,0-13.327,2.925-19.389-5.925c0,0,6.196-5.025,12.726-2.504
					C400.828,278.481,400.961,284.39,400.961,284.39z"/>
				<path style="fill:#FFFFFF;" d="M386.699,299.943l3.971-0.611C390.67,299.332,389.524,302.616,386.699,299.943z"/>
				<g>
					<path style="fill:#130F40;" d="M395.162,292.812c0,0.639-0.518,1.157-1.157,1.157c-0.639,0-1.157-0.518-1.157-1.157
						c0-0.639,0.518-1.157,1.157-1.157C394.644,291.655,395.162,292.173,395.162,292.812z"/>
					<path style="fill:#130F40;" d="M384.52,292.812c0,0.639-0.518,1.157-1.157,1.157c-0.639,0-1.157-0.518-1.157-1.157
						c0-0.639,0.518-1.157,1.157-1.157C384.002,291.655,384.52,292.173,384.52,292.812z"/>
				</g>
				<g>
					
						<path style="fill:none;stroke:#130F40;stroke-width:0.5;stroke-linecap:round;stroke-linejoin:round;stroke-miterlimit:10;" d="
						M392.138,285.317c0,0,2.463-1.7,5.671-0.497"/>
					
						<path style="fill:none;stroke:#130F40;stroke-width:0.5;stroke-linecap:round;stroke-linejoin:round;stroke-miterlimit:10;" d="
						M385.231,285.317c0,0-2.463-1.7-5.671-0.497"/>
				</g>
				<g>
					<path style="fill:none;stroke:#FFFFFF;stroke-miterlimit:10;" d="M387.677,290.365c0,4.049-3.283,7.332-7.332,7.332
						c-4.049,0-7.332-3.283-7.332-7.332c0-4.049,3.283-7.332,7.332-7.332C384.394,283.033,387.677,286.315,387.677,290.365z"/>
					<path style="fill:none;stroke:#FFFFFF;stroke-miterlimit:10;" d="M404.355,290.365c0,4.049-3.283,7.332-7.332,7.332
						s-7.332-3.283-7.332-7.332c0-4.049,3.283-7.332,7.332-7.332S404.355,286.315,404.355,290.365z"/>
				</g>
			</g>
			<g>
				<path style="fill:#DFF9FB;" d="M374.273,311.231v75.947h-47.475C326.798,387.178,339.28,311.231,374.273,311.231z"/>
				<path style="fill:#DFF9FB;" d="M402.813,311.231v75.947h47.475C450.288,387.178,437.806,311.231,402.813,311.231z"/>
			</g>
			<g>
				<path style="fill:#FFC2BD;" d="M392.273,428.006l-22.833-6.768c0,0-8.62,8.22-11.78,6.768
					c-3.16-1.453,7.183-14.059,7.183-14.059h33.488L392.273,428.006z"/>
				<path style="fill:#FFBE76;" d="M368.854,413.947c0,0,28.6-33.939,73.421-36.956c44.821-3.017,65.845,30.599,58.996,55.595
					c-6.849,24.996-53.508,42.81-111.201,14.509l12.232-31.748L368.854,413.947z"/>
				<g>
					
						<path style="fill:none;stroke:#130F40;stroke-width:0.5;stroke-linecap:round;stroke-linejoin:round;stroke-miterlimit:10;" d="
						M461.237,396.816c0,0-19.797,1.149-36.762,9.194"/>
					
						<path style="fill:none;stroke:#130F40;stroke-width:0.5;stroke-linecap:round;stroke-linejoin:round;stroke-miterlimit:10;" d="
						M404.3,426.283c0,0,60.242,25.985,94.504-20.272"/>
					
						<path style="fill:none;stroke:#130F40;stroke-width:0.5;stroke-linecap:round;stroke-linejoin:round;stroke-miterlimit:10;" d="
						M450.57,398.157c0,0,2.622-4.501,6.357-7.087"/>
				</g>
				
					<rect x="373.661" y="421.101" transform="matrix(-0.3957 0.9184 -0.9184 -0.3957 947.9027 228.8623)" style="fill:#F6E58D;" width="49.993" height="10.363"/>
				<path style="fill:#FFC2BD;" d="M385.095,428.006l22.833-6.768c0,0,8.62,8.22,11.78,6.768c3.16-1.453-7.183-14.059-7.183-14.059
					h-33.488L385.095,428.006z"/>
				<path style="fill:#FFBE76;" d="M408.515,413.947c0,0-28.6-33.939-73.421-36.956c-44.821-3.017-65.844,30.599-58.996,55.595
					c6.849,24.996,53.508,42.81,111.201,14.509l-12.232-31.748L408.515,413.947z"/>
				<g>
					
						<path style="fill:none;stroke:#130F40;stroke-width:0.5;stroke-linecap:round;stroke-linejoin:round;stroke-miterlimit:10;" d="
						M316.132,396.816c0,0,19.797,1.149,36.763,9.194"/>
					
						<path style="fill:none;stroke:#130F40;stroke-width:0.5;stroke-linecap:round;stroke-linejoin:round;stroke-miterlimit:10;" d="
						M373.069,426.283c0,0-60.242,25.985-94.504-20.272"/>
					
						<path style="fill:none;stroke:#130F40;stroke-width:0.5;stroke-linecap:round;stroke-linejoin:round;stroke-miterlimit:10;" d="
						M326.798,398.157c0,0-2.622-4.501-6.357-7.087"/>
				</g>
				
					<rect x="353.715" y="421.101" transform="matrix(0.3957 0.9184 -0.9184 0.3957 620.3275 -90.2057)" style="fill:#F6E58D;" width="49.993" height="10.363"/>
				<g>
					<defs>
						<path id="SVGID_00000037666993507904217090000004851925675922540731_" d="M368.854,413.947c0,0,28.6-33.939,73.421-36.956
							c44.821-3.017,65.845,30.599,58.996,55.595c-6.849,24.996-53.508,42.81-111.201,14.509l12.232-31.748L368.854,413.947z"/>
					</defs>
					<clipPath id="SVGID_00000031196125686770060520000000326042102514143634_">
						<use xlink:href="#SVGID_00000037666993507904217090000004851925675922540731_"  style="overflow:visible;"/>
					</clipPath>
					<path style="opacity:0.1;clip-path:url(#SVGID_00000031196125686770060520000000326042102514143634_);" d="M502.492,419.175
						c0,0-6.234,20.76-39.839,29.62c-33.604,8.859-64.331-8.285-64.331-8.285l-4.645,10.778c0,0,34.149,19.807,70.197,19.196
						C499.923,469.874,513.614,438.74,502.492,419.175z"/>
				</g>
				<g>
					<defs>
						<path id="SVGID_00000141441984380085750730000007724339358380302764_" d="M408.515,413.947c0,0-28.6-33.939-73.421-36.956
							c-44.821-3.017-65.844,30.599-58.996,55.595c6.849,24.996,53.508,42.81,111.201,14.509l-12.232-31.748L408.515,413.947z"/>
					</defs>
					<clipPath id="SVGID_00000134227584959689949890000000453080481886215097_">
						<use xlink:href="#SVGID_00000141441984380085750730000007724339358380302764_"  style="overflow:visible;"/>
					</clipPath>
					<path style="opacity:0.1;clip-path:url(#SVGID_00000134227584959689949890000000453080481886215097_);" d="M275.03,419.175
						c0,0,6.234,20.76,39.839,29.62c33.604,8.859,64.331-8.285,64.331-8.285l4.645,10.778c0,0-34.149,19.807-70.197,19.196
						C277.598,469.874,263.908,438.74,275.03,419.175z"/>
				</g>
				
					<polyline style="fill:none;stroke:#130F40;stroke-width:0.5;stroke-linecap:round;stroke-linejoin:round;stroke-miterlimit:10;" points="
					388.684,436.335 393.361,447.188 388.684,449.203 				"/>
				
					<line style="fill:none;stroke:#FF7979;stroke-width:0.5;stroke-linecap:round;stroke-linejoin:round;stroke-miterlimit:10;" x1="388.684" y1="426.942" x2="393.324" y2="425.567"/>
			</g>
			<g>
				<path style="fill:#7ED6DF;" d="M437.715,414.809h-98.061c-1.96,0-3.572-1.544-3.656-3.502l-2.94-68.37
					c-0.09-2.081,1.573-3.817,3.656-3.817h103.942c2.083,0,3.745,1.736,3.656,3.817l-2.94,68.37
					C441.287,413.265,439.675,414.809,437.715,414.809z"/>
				<path style="fill:#7ED6DF;" d="M337.499,417.787h102.37c0.822,0,1.489-0.667,1.489-1.489l0,0c0-0.823-0.667-1.489-1.489-1.489
					h-102.37c-0.822,0-1.489,0.667-1.489,1.489l0,0C336.01,417.121,336.677,417.787,337.499,417.787z"/>
				<rect x="359.586" y="414.809" style="fill:#130F40;" width="58.197" height="2.979"/>
				
					<line style="fill:none;stroke:#130F40;stroke-width:0.5;stroke-linecap:round;stroke-linejoin:round;stroke-miterlimit:10;" x1="359.586" y1="414.809" x2="339.654" y2="414.809"/>
				
					<line style="fill:none;stroke:#130F40;stroke-width:0.5;stroke-linecap:round;stroke-linejoin:round;stroke-miterlimit:10;" x1="417.783" y1="414.809" x2="437.715" y2="414.809"/>
				<polygon style="fill:#FFFFFF;" points="384.599,365.389 381.145,376.845 388.053,376.845 382.613,388.302 396.223,373.409 
					387.181,373.409 391.077,365.389 				"/>
				<g>
					<defs>
						<path id="SVGID_00000044898780730638576990000016684725147196380347_" d="M437.715,414.809h-98.061
							c-1.96,0-3.572-1.544-3.656-3.502l-2.94-68.37c-0.09-2.081,1.573-3.817,3.656-3.817h103.942c2.083,0,3.745,1.736,3.656,3.817
							l-2.94,68.37C441.287,413.265,439.675,414.809,437.715,414.809z"/>
					</defs>
					<clipPath id="SVGID_00000022526619870808414800000004719166738464055720_">
						<use xlink:href="#SVGID_00000044898780730638576990000016684725147196380347_"  style="overflow:visible;"/>
					</clipPath>
					<polygon style="opacity:0.1;clip-path:url(#SVGID_00000022526619870808414800000004719166738464055720_);" points="
						371.868,414.809 442.196,392.116 441.359,420.308 371.868,420.308 					"/>
				</g>
			</g>
			<path style="opacity:0.1;" d="M337.499,417.787c0,0,14.106,6.415,51.185,6.415c37.079,0,51.185-6.415,51.185-6.415H337.499z"/>
		</g>
	</g>
</g>
</svg>
